<svg width="419" height="419" viewBox="0 0 419 419" fill="none" xmlns="http://www.w3.org/2000/svg">
<path fill-rule="evenodd" clip-rule="evenodd" d="M215.187 1.11047C217.262 1.83501 218.487 1.77697 220.365 0.866024C222.586 -0.211106 222.853 -0.169779 223.112 1.2872C223.27 2.17441 222.843 3.76768 222.163 4.8281C221.265 6.22969 221.075 8.2547 221.469 12.2511C221.974 17.3641 221.511 19.0058 220.175 16.8401C219.863 16.3354 218.753 17.2138 217.675 18.8185C214.977 22.8333 212.102 24.0722 208.07 22.9564C201.133 21.0378 201.333 11.5916 208.309 11.5916C210.571 11.5916 211.852 12.8903 211.852 15.1809C211.852 16.3626 209.425 16.1674 209.02 14.9531C208.637 13.7995 206.585 14.7307 206.585 16.0584C206.585 16.5244 207.557 17.3483 208.744 17.89C211.998 19.3751 215.363 16.9025 215.363 13.0266C215.363 8.92296 212.702 6.73265 207.844 6.83904C203.303 6.9384 201.754 8.04543 200.399 12.1587C199.459 15.0103 199.282 15.1263 197.849 13.8268C196.389 12.5043 196.353 12.6758 197.16 17.0669C198.129 22.3409 198.153 24.0441 197.317 28.0959L196.725 30.972L199.356 29.4597C201.687 28.1187 202.396 28.0827 205.6 29.1422C210.181 30.6564 214.856 29.421 218.914 25.6233C222.245 22.5062 223.055 22.799 221.499 26.5606C220.129 29.8738 221.126 31.1927 224.693 30.7847C227.011 30.5192 227.198 30.2308 227.021 27.199C226.914 25.3859 227.025 23.9017 227.266 23.9017C227.509 23.9017 228.972 25.3455 230.519 27.1102C234.195 31.3044 237.911 32.8194 242.858 32.1397C246.054 31.701 247.075 31.9261 248.539 33.3927L250.323 35.1803L250.837 33.128C251.12 31.999 251.119 30.4691 250.835 29.7278C250.551 28.9866 251.144 26.1702 252.153 23.4699C253.583 19.6418 254.101 18.2678 253.727 17.9528C253.515 17.7738 253.015 17.937 252.231 18.1863C250.781 18.647 250.475 18.3446 250.475 16.447C250.475 10.6086 241.351 7.31474 236.979 11.5758C235.094 13.4126 234.821 17.1223 236.428 19.0629C237.872 20.8057 242.479 20.7819 243.15 19.0278C243.875 17.1346 242.872 16.4057 241.318 17.6974C239.441 19.2573 237.949 18.0755 239.092 15.9344C241.062 12.2493 246.964 15.0287 246.964 19.6415C246.964 23.1947 244.167 25.6602 240.137 25.6602C235.9 25.6602 233.321 23.8296 232.027 19.9018C231.144 17.2191 230.812 16.9447 229.634 17.9243C228.414 18.9381 228.336 18.5864 228.919 14.6665C229.278 12.2502 229.958 9.80313 230.429 9.22983C230.989 8.54751 230.961 7.5794 230.347 6.43017C229.83 5.46383 229.408 3.61204 229.408 2.31597C229.408 0.0614727 229.496 0.0166322 231.417 1.27753C232.653 2.08912 236.222 2.72308 240.702 2.9262L247.978 3.2577L251.908 7.42465C254.07 9.71608 255.974 11.5916 256.139 11.5916C256.305 11.5916 256.382 10.3052 256.31 8.73391C256.198 6.24376 256.486 5.84105 258.552 5.60188C263.218 5.06288 266.14 8.27141 263.203 10.7123C262.479 11.3146 261.887 12.339 261.887 12.9888C261.887 13.8549 262.713 13.6817 264.984 12.339C269.904 9.43207 275.631 9.76092 280.853 13.2499C284.2 15.4851 285.778 16.0197 288.001 15.6689C291.57 15.107 291.631 16.2246 288.221 19.6406C286.772 21.0914 285.581 22.9406 285.574 23.7495C285.566 24.5585 285.036 26.9783 284.395 29.1264C283.379 32.5301 283.111 32.8203 282.31 31.3853C281.435 29.821 281.251 29.8562 278.593 32.0958C276.994 33.4446 274.728 34.4531 273.298 34.4531C269.723 34.4531 265.398 30.5596 265.398 27.3406C265.398 24.5761 268.061 21.2638 270.284 21.2638C272.613 21.2638 275.054 23.0039 275.054 24.6658C275.054 27.2773 273.897 27.6211 272.289 25.4861C270.917 23.6625 270.718 23.6185 270.182 25.0175C268.739 28.7852 274.488 30.6238 277.687 27.4188C280.134 24.9674 279.878 22.4447 276.877 19.4375C273.224 15.7788 268.196 15.8113 265.086 19.5149C263.131 21.8424 262.763 21.9839 262.04 20.6905C261.312 19.3874 261.147 19.4428 260.598 21.1741C260.258 22.2495 259.862 24.7053 259.719 26.631C259.575 28.5566 258.879 30.8076 258.172 31.6333C257.465 32.4589 256.625 33.8711 256.305 34.7706C255.81 36.1625 256.051 36.3243 257.916 35.8556C259.457 35.4687 261.619 36.1106 265.169 38.0099C270.581 40.9071 273.615 40.974 278.754 38.3123C280.837 37.2335 281.198 37.2282 281.198 38.2798C281.198 38.9586 280.606 40.0059 279.882 40.6082C277.946 42.2173 278.274 44.0304 280.703 45.1392C283.783 46.5443 285.587 45.5296 285.587 42.394C285.587 38.6641 286.869 39.0738 288.103 43.1994C289.523 47.9467 293.514 51.74 297.862 52.4759C300.143 52.862 302.018 53.8837 303.192 55.3794C304.687 57.2821 305.146 57.4615 305.816 56.4011C306.262 55.695 306.633 54.2679 306.641 53.2313C306.648 52.1937 307.86 50.0535 309.332 48.4743C310.805 46.8951 312.418 44.8376 312.918 43.902C313.701 42.438 313.586 42.2771 312.101 42.7492C310.521 43.2513 310.412 42.9664 310.817 39.3728C311.203 35.94 310.962 35.1724 308.884 33.2441C303.415 28.1662 294.879 31.1338 296.487 37.5544C297.208 40.4306 300.782 42.2058 302.678 40.6302C304.683 38.963 304.3 37.8665 301.922 38.4645C299.423 39.0932 298.256 37.7206 300.032 36.2443C301.99 34.6167 305.145 35.5303 306.607 38.1497C307.833 40.3435 307.795 40.7163 306.118 42.9647C304.001 45.8056 300.973 46.8028 297.878 45.6782C293.987 44.2651 292.61 42.3518 292.61 38.3563C292.61 34.9957 292.424 34.6668 290.773 35.0985L288.937 35.5795L290.709 32.1002C291.684 30.1859 293.064 28.1363 293.775 27.5454C294.486 26.9537 295.068 25.1274 295.068 23.4858C295.068 18.8501 295.974 18.1564 298.663 20.7362C299.955 21.9769 302.381 23.2527 304.053 23.5719C310.559 24.8144 314.857 28.7123 315.992 34.3977C316.497 36.9292 317.98 38.9824 318.133 37.3627C318.576 32.6699 320.095 31.4574 323.394 33.1659C326.978 35.022 327.323 37.0611 324.463 39.4871L322.016 41.564L325.647 41.025C331.692 40.1298 335.949 41.8365 340.168 46.8485C342.477 49.5919 344.841 51.4683 346.378 51.776C349.478 52.3968 349.107 53.7984 345.335 55.7188C343.734 56.5339 341.98 57.9777 341.436 58.9264C337.316 66.1313 335.622 67.6964 335.622 64.2989C335.622 62.6062 335.497 62.5781 333.671 63.8592C327.205 68.3964 317.642 60.095 322.222 53.9215C323.17 52.6439 324.943 51.4788 326.162 51.332C328.855 51.0067 331.423 53.3588 331.06 55.8164C330.683 58.3672 328.791 58.6925 328.448 56.2666C328.09 53.736 326.495 53.6023 326.143 56.0731C325.82 58.3443 327.893 60.1724 330.794 60.1724C333.981 60.1724 335.622 58.3944 335.622 54.9415C335.622 48.8955 328.244 44.6265 323.72 48.054C321.527 49.7159 320.699 49.7229 320.699 48.0821C320.699 47.3567 320.404 46.7658 320.041 46.7702C319.161 46.779 315.433 53.3807 315.433 54.93C315.433 55.6027 314.47 56.5928 313.292 57.13C312.115 57.6673 310.739 58.8789 310.235 59.8224C309.449 61.2926 309.565 61.4737 311.044 61.0868C312.291 60.7597 313.948 61.8606 317.029 65.063C321.485 69.6933 325.046 71.0967 330.361 70.3159C333.563 69.8446 333.724 70.6983 330.794 72.6214C328.226 74.3061 328.055 75.4782 330.052 77.6887C332.159 80.0215 333.619 79.6759 335.344 76.4392L336.866 73.5815L337.449 78.0633C338.262 84.3291 339.866 87.1938 344.18 90.0946C346.862 91.8971 347.911 93.2047 347.911 94.7425C347.911 95.9199 348.176 96.8827 348.5 96.8827C349.584 96.8827 352.3 93.9863 352.3 92.8309C352.3 92.2031 353.583 91.0689 355.153 90.31C356.722 89.5503 358.993 88.1558 360.2 87.2105C361.979 85.8169 362.103 85.4871 360.859 85.4713C359.212 85.4502 358.748 83.2731 360.2 82.3744C360.683 82.0755 361.078 80.3459 361.078 78.5302C361.078 72.6214 354.718 68.6751 349.609 71.4141C347.549 72.5185 347.271 77.6702 349.186 79.2618C350.709 80.5279 353.325 80.1753 353.838 78.6348C354.073 77.9252 353.474 77.6122 352.154 77.7555C350.82 77.9006 350.106 77.5181 350.106 76.659C350.106 75.7824 350.981 75.3401 352.718 75.3401C354.768 75.3401 355.51 75.8536 356.167 77.723C357.28 80.8928 355.675 84.3528 352.752 85.0879C346.909 86.5563 341.458 80.4488 343.287 74.4802C344.078 71.8977 344.018 71.3833 342.928 71.3833C340.748 71.3833 342.097 69.353 346.434 66.1093C348.694 64.4176 350.544 62.4014 350.544 61.6294C350.544 60.8573 351.316 59.5261 352.259 58.6714C353.914 57.1714 353.992 57.196 354.544 59.3968C354.878 60.7298 356.884 62.95 359.373 64.7412C364.92 68.7331 366.461 71.2312 367.146 77.3458C367.665 81.9664 367.8 82.2135 368.814 80.396C370.121 78.0536 372.176 77.861 374.395 79.8729C377.002 82.2364 376.447 85.1152 373.148 86.3339C370.085 87.4664 370.27 87.6475 375.361 88.5005C379.989 89.2769 384.363 93.4166 386.105 98.6712C386.899 101.064 388.585 103.834 389.859 104.839C391.767 106.341 391.948 106.804 390.889 107.474C390.184 107.92 388.726 108.292 387.649 108.3C386.573 108.307 383.61 109.896 381.066 111.832C376.876 115.017 376.413 115.182 376.159 113.588C375.938 112.197 375.427 111.941 373.728 112.369C369.317 113.478 363.712 108.861 363.712 104.12C363.712 101.456 367.064 97.762 369.481 97.762C371.798 97.762 375.123 100.548 375.123 102.491C375.123 104.115 372.795 105.968 371.648 105.258C371.011 104.864 371.022 104.141 371.682 102.906C372.491 101.392 372.392 101.168 371.026 101.43C368.611 101.891 368.521 105.255 370.88 106.909C371.98 107.682 373.582 108.313 374.441 108.313C376.689 108.313 379.512 105.155 379.512 102.639C379.512 96.7965 374.868 92.8389 369.251 93.894C366.521 94.4075 366.141 94.2862 366.614 93.0508C367.525 90.6749 366.026 91.3986 362.46 95.0573C360.61 96.9548 358.064 98.767 356.801 99.0845C352.585 100.145 351.974 101.364 354.797 103.083C356.504 104.123 357.527 105.622 357.904 107.638C358.612 111.42 362.45 115.161 367.006 116.508C371.306 117.78 371.94 119.154 368.501 119.751C365.347 120.298 364.832 122.282 367.111 125.096L368.829 127.218L371.095 125.089C373.878 122.475 374.766 123.139 373.469 126.865C371.762 131.769 372.263 135.796 375.053 139.595C376.462 141.515 377.746 144.425 377.906 146.061L378.195 149.034L380.955 146.7C382.474 145.415 384.403 144.364 385.242 144.364C387.565 144.364 393.557 142.416 393.557 141.661C393.557 141.294 393.07 140.831 392.474 140.632C391.755 140.393 392.2 139.308 393.79 137.414C395.11 135.843 396.188 133.698 396.187 132.646C396.181 129.678 392.979 125.129 390.447 124.492C385.562 123.264 381.605 127.756 383.857 131.973C384.984 134.082 388.29 134.471 388.29 132.494C388.29 131.769 387.697 131.175 386.973 131.175C386.249 131.175 385.657 130.582 385.657 129.856C385.657 128.279 388.387 128.107 389.87 129.592C391.376 131.101 391.17 134.72 389.471 136.601C387.458 138.829 383.587 138.611 380.678 136.104C377.464 133.335 377.254 127.923 380.238 124.742C382.103 122.753 382.132 122.564 380.657 121.986C379.316 121.459 379.544 121.111 382.145 119.712C383.835 118.803 385.948 118.043 386.841 118.023C387.733 118.002 389.571 116.799 390.923 115.348C394.032 112.014 395.312 112.006 395.312 115.317C395.312 116.953 396.281 119.03 397.915 120.894C402.46 126.08 403.306 130.426 401.019 136.857C399.535 141.03 399.975 141.829 402.351 139.274C404.491 136.973 406.22 137.505 407.621 140.895C409.117 144.514 408.239 145.966 404.359 146.287L401.018 146.563L404.792 148.727C410.084 151.763 412.127 155.454 412.351 162.383C412.482 166.432 412.989 168.54 414.137 169.811C415.67 171.507 415.672 171.612 414.175 172.188C413.314 172.518 411.58 172.4 410.321 171.924C408.584 171.267 407.189 171.439 404.526 172.636C402.596 173.504 400.081 174.224 398.936 174.237C397.183 174.257 397.026 174.051 397.946 172.941C398.867 171.83 398.641 171.541 396.518 171.114C393.427 170.492 391.531 169.147 390.189 166.624C386.39 159.48 394.761 151.902 399.618 158.087C401.434 160.399 401.099 162.74 398.742 164.199C397.103 165.213 395.761 163.088 397.055 161.526C398.398 159.906 397.716 158.875 395.789 159.616C394.006 160.302 394.06 163.595 395.887 165.618C399.689 169.826 406.479 165.38 405.516 159.312C404.91 155.495 401.398 152.278 397.838 152.278C395.584 152.278 395.277 152.015 395.756 150.502C396.296 148.799 396.114 148.817 391.317 150.941C388.566 152.16 385.048 153.157 383.499 153.157C379.812 153.157 379.29 153.814 381.34 155.868C382.59 157.12 383.023 158.796 383.023 162.387C383.023 166.697 383.364 167.599 386.164 170.703C387.891 172.619 390.093 174.436 391.058 174.743C393.459 175.506 392.246 176.458 388.872 176.458C386.38 176.458 386.067 176.752 385.82 179.322C385.503 182.614 387.482 183.982 390.15 182.313C393.28 180.355 393.621 181.324 391.104 185.032C387.579 190.224 387.197 192.432 388.886 197.878C390.033 201.58 390.126 202.946 389.319 204.241C388.753 205.149 388.29 206.094 388.29 206.342C388.29 207.293 391.494 206.735 393.295 205.472C394.724 204.469 395.741 204.363 397.498 205.032C398.773 205.517 401.252 205.915 403.006 205.915C405.488 205.915 405.963 205.68 405.144 204.86C403.698 203.411 403.823 202.398 405.447 202.398C406.193 202.398 407.773 201.426 408.958 200.239C414.253 194.935 408.761 183.957 402.577 187.484C401.338 188.191 400.016 189.614 399.64 190.646C398.779 193.007 400.935 196.388 402.836 195.658C404.02 195.202 404.018 194.982 402.811 193.647C400.948 191.584 401.115 190.794 403.342 191.125C408.757 191.932 407.034 199.104 401.31 199.587C397.241 199.93 394.435 196.738 394.435 191.765C394.435 188.987 394.959 187.984 397.462 185.984C399.692 184.202 400.249 183.275 399.579 182.466C398.365 181.001 402.131 180.038 406.684 180.65C408.793 180.933 410.495 180.681 411.24 179.974C411.894 179.353 413.342 178.571 414.459 178.235C416.388 177.654 416.458 177.784 415.881 180.864C415.468 183.069 415.782 185.598 416.864 188.787C418.214 192.767 418.294 194.003 417.393 197.015C416.81 198.965 415.307 201.781 414.052 203.274C411.382 206.453 411.703 207.288 415.012 205.777C417.689 204.556 418.975 205.64 419 209.14C419.03 213.443 416.448 215.304 413.937 212.788C411.775 210.622 411.873 212.995 414.052 215.589C415.307 217.083 416.81 219.899 417.393 221.848C418.294 224.861 418.214 226.097 416.864 230.077C415.782 233.266 415.468 235.795 415.881 238C416.459 241.083 416.389 241.209 414.459 240.616C413.342 240.272 411.877 239.548 411.202 239.005C410.505 238.444 407.798 238.143 404.936 238.308C400.174 238.583 397.612 237.544 399.765 236.211C400.367 235.838 399.538 234.621 397.585 233.008C394.98 230.857 394.435 229.83 394.435 227.072C394.435 222.127 397.25 218.934 401.31 219.276C407.034 219.76 408.757 226.931 403.342 227.739C401.139 228.067 400.878 226.835 402.81 225.228C403.803 224.403 403.903 223.846 403.187 223.142C402.478 222.444 401.769 222.722 400.598 224.156C398.63 226.567 399.181 229.273 402.018 231.135C406.179 233.866 411.113 229.679 411.113 223.419C411.113 220.566 407.772 216.466 405.447 216.466C403.823 216.466 403.698 215.452 405.144 214.004C405.963 213.184 405.523 212.949 403.162 212.949C401.494 212.949 398.923 213.295 397.449 213.719C395.535 214.269 394.296 214.143 393.117 213.28C391.519 212.109 388.29 211.602 388.29 212.522C388.29 212.77 388.753 213.715 389.319 214.622C390.126 215.919 390.031 217.281 388.872 220.986C387.136 226.538 387.738 229.65 391.511 234.614L393.996 237.884L391.801 237.21C386.941 235.716 386.095 236.03 386.095 239.328C386.095 242.139 386.324 242.414 388.729 242.506C390.177 242.563 391.718 242.661 392.152 242.726C392.587 242.791 391.345 244.004 389.392 245.42C384.256 249.148 383.023 251.325 383.023 256.67C383.023 260.07 382.574 261.76 381.34 262.996C379.29 265.05 379.812 265.706 383.499 265.706C385.048 265.706 388.566 266.703 391.317 267.922C396.114 270.047 396.296 270.065 395.756 268.362C395.282 266.864 395.585 266.586 397.691 266.586C401.286 266.586 403.884 264.402 405.091 260.367C406.027 257.239 405.947 256.588 404.371 254.465C402.224 251.571 398.445 250.913 396.113 253.027C394.095 254.856 393.904 258.523 395.789 259.248C397.711 259.987 398.244 259.114 397.136 257.042C395.965 254.85 397.408 253.613 399.301 255.187C402.197 257.594 399.609 263.069 395.576 263.069C392.791 263.069 389.168 259.329 389.168 256.456C389.168 251.973 391.98 248.661 396.575 247.738C398.565 247.338 398.915 246.981 398.111 246.176C397.537 245.601 397.068 244.834 397.068 244.47C397.068 243.743 403.697 245.562 406.237 246.986C407.321 247.593 408.599 247.59 410.221 246.978C411.535 246.481 413.314 246.345 414.175 246.676C415.671 247.251 415.669 247.357 414.131 249.06C412.995 250.318 412.438 252.55 412.238 256.66C411.894 263.739 410.014 267.141 404.792 270.136L401.018 272.301L404.359 272.577C408.239 272.897 409.117 274.35 407.621 277.969C406.22 281.359 404.491 281.891 402.351 279.59C399.975 277.035 399.535 277.834 401.019 282.007C403.306 288.438 402.46 292.784 397.915 297.97C396.281 299.833 395.312 301.91 395.312 303.547C395.312 306.862 394.011 306.853 391.087 303.516C389.816 302.065 387.976 300.861 386.997 300.841C386.018 300.821 383.835 300.061 382.145 299.152C379.544 297.753 379.316 297.405 380.657 296.878C382.162 296.288 382.154 296.164 380.502 294.391C377.925 291.623 377.389 288.313 379.011 285.171C381.333 280.672 386.153 279.24 389.318 282.11C391.141 283.762 391.444 287.695 389.87 289.271C388.387 290.756 385.657 290.585 385.657 289.008C385.657 288.282 386.249 287.689 386.973 287.689C387.697 287.689 388.29 287.095 388.29 286.37C388.29 284.393 384.984 284.782 383.857 286.891C381.605 291.107 385.562 295.6 390.447 294.371C392.979 293.735 396.181 289.185 396.187 286.218C396.188 285.166 395.132 283.046 393.837 281.505C391.601 278.843 391.566 278.658 393.127 277.783C394.56 276.98 394.27 276.712 390.872 275.693C388.728 275.051 386.24 274.52 385.344 274.512C384.449 274.505 382.474 273.449 380.955 272.164L378.195 269.829L377.909 272.75C377.752 274.356 376.63 276.974 375.416 278.57C372.734 282.091 371.918 287.247 373.353 291.602C374.716 295.738 373.96 296.465 371.095 293.774L368.829 291.645L367.111 293.767C364.832 296.582 365.347 298.565 368.501 299.112C372.062 299.731 371.523 301.02 367.166 302.309C362.463 303.7 358.62 307.399 357.904 311.225C357.527 313.242 356.504 314.741 354.797 315.78C351.974 317.5 352.585 318.719 356.801 319.779C358.064 320.097 360.61 321.909 362.46 323.806C366.214 327.658 367.277 328.095 366.602 325.51C366.183 323.9 366.365 323.838 368.905 324.725C374.134 326.551 379.512 322.283 379.512 316.31C379.512 313.721 376.72 310.55 374.441 310.55C371.854 310.55 368.852 313.177 369.148 315.182C369.554 317.935 371.612 318.167 371.612 315.459C371.612 312.991 372.42 312.591 374.07 314.243C376.62 316.798 373.619 321.102 369.286 321.102C367.059 321.102 363.712 317.285 363.712 314.744C363.712 310.002 369.317 305.386 373.728 306.495C375.427 306.922 375.938 306.666 376.159 305.275C376.413 303.681 376.876 303.846 381.066 307.032C383.61 308.967 386.573 310.556 387.649 310.563C388.726 310.571 390.169 310.934 390.857 311.371C391.863 312.007 391.58 312.609 389.42 314.43C387.772 315.819 386.507 317.895 386.151 319.797C385.068 325.576 379.86 329.857 372.49 331.024C370.357 331.36 370.376 331.402 373.148 332.477C376.373 333.728 376.92 336.213 374.548 338.838C372.641 340.95 370.151 340.882 368.978 338.687C367.428 335.786 366.784 336.67 366.784 341.703C366.784 347.288 365.086 350.098 359.376 353.971C357.3 355.379 355.243 357.646 354.747 359.071C353.894 361.52 353.777 361.569 352.199 360.139C351.289 359.314 350.544 358.006 350.544 357.234C350.544 356.462 348.694 354.446 346.434 352.754C342.097 349.511 340.748 347.48 342.928 347.48C344.018 347.48 344.078 346.966 343.287 344.383C341.458 338.415 346.909 332.307 352.752 333.776C355.675 334.511 357.28 337.971 356.167 341.141C355.51 343.01 354.768 343.524 352.718 343.524C350.981 343.524 350.106 343.081 350.106 342.205C350.106 341.345 350.82 340.963 352.154 341.108C354.702 341.385 354.283 339.247 351.716 338.865C348.019 338.315 346.108 344.864 349.286 347.192C353.907 350.576 361.078 346.406 361.078 340.334C361.078 338.518 360.683 336.788 360.2 336.489C358.783 335.612 359.193 333.568 360.859 333.21C361.916 332.983 360.819 331.977 357.347 329.985C354.571 328.392 352.3 326.663 352.3 326.143C352.3 324.981 349.671 321.981 348.653 321.981C348.245 321.981 347.911 322.944 347.911 324.121C347.911 325.659 346.862 326.967 344.18 328.769C339.866 331.67 338.262 334.535 337.449 340.8L336.866 345.282L335.344 342.424C333.607 339.165 333.238 339.05 330.551 340.936C328.002 342.724 328.082 344.462 330.794 346.242C333.724 348.165 333.563 349.019 330.361 348.548C325.046 347.767 321.485 349.17 317.029 353.801C313.948 357.003 312.291 358.104 311.044 357.777C309.565 357.39 309.449 357.571 310.235 359.041C310.739 359.985 312.016 361.156 313.073 361.645C314.161 362.147 315.918 364.653 317.123 367.421C319.007 371.745 319.381 372.136 320.358 370.796C321.378 369.399 321.617 369.391 323.471 370.692C330.018 375.285 339.115 366.67 334.456 360.288C332.177 357.166 325.573 359.008 326.143 362.606C326.494 364.813 328.09 364.714 328.442 362.463C328.595 361.477 329.066 360.67 329.487 360.67C330.807 360.67 331.419 362.445 330.863 364.663C330.165 367.45 326.667 368.367 323.832 366.506C320.91 364.588 320.341 362.131 322.006 358.616C324.225 353.932 329.718 352.23 333.671 355.004C335.497 356.286 335.622 356.257 335.622 354.565C335.622 353.57 335.918 352.768 336.28 352.783C337.051 352.816 339.67 356.293 341.312 359.463C341.944 360.683 343.762 362.344 345.353 363.154C349.108 365.065 349.473 366.468 346.378 367.088C344.841 367.395 342.477 369.272 340.168 372.015C335.946 377.031 331.981 378.621 325.801 377.776L322.016 377.259L324.463 379.356C327.347 381.826 326.975 383.843 323.283 385.756C321.094 386.888 320.655 386.878 319.439 385.66C318.684 384.904 318.066 383.499 318.066 382.538C318.066 379.963 316.623 381.305 315.992 384.466C314.857 390.151 310.559 394.049 304.053 395.292C302.381 395.611 299.955 396.887 298.663 398.127C295.974 400.707 295.068 400.014 295.068 395.378C295.068 393.736 294.486 391.91 293.775 391.318C293.064 390.727 291.694 388.699 290.733 386.81L288.984 383.376L290.797 383.952C292.442 384.476 292.61 384.17 292.61 380.649C292.61 376.503 293.943 374.614 297.878 373.186C300.927 372.078 303.994 373.047 306.013 375.757C307.541 377.807 307.596 378.324 306.523 380.572C305.208 383.329 302.074 384.317 300.032 382.619C298.4 381.263 299.354 379.736 301.486 380.295C303.656 380.863 304.36 379.632 302.668 378.226C300.782 376.657 297.206 378.441 296.487 381.309C295.209 386.411 300.815 389.997 306.123 387.473C309.87 385.692 311.432 382.748 310.775 378.7C310.308 375.814 310.422 375.581 312.045 376.097C313.589 376.587 313.706 376.435 312.918 374.962C312.418 374.026 310.805 371.969 309.332 370.389C307.86 368.81 306.655 366.65 306.655 365.588C306.655 362.269 304.868 361.351 303.011 363.716C302.016 364.983 300.008 366.025 297.862 366.388C293.514 367.124 289.523 370.917 288.103 375.664C286.869 379.79 285.587 380.2 285.587 376.47C285.587 373.334 283.783 372.319 280.703 373.724C278.274 374.833 277.946 376.646 279.882 378.255C280.606 378.858 281.198 379.905 281.198 380.584C281.198 381.635 280.837 381.63 278.754 380.551C273.606 377.885 270.55 377.948 265.08 380.83C261.595 382.666 259.291 383.354 257.844 382.99C256.054 382.539 255.813 382.712 256.305 384.093C256.625 384.993 257.465 386.405 258.172 387.23C258.879 388.056 259.575 390.307 259.719 392.233C259.862 394.158 260.258 396.614 260.598 397.69C261.147 399.421 261.312 399.476 262.04 398.173C262.763 396.88 263.131 397.021 265.086 399.349C268.196 403.052 273.224 403.085 276.877 399.426C279.878 396.419 280.134 393.896 277.687 391.445C274.488 388.24 268.739 390.078 270.182 393.846C270.718 395.245 270.917 395.201 272.289 393.378C273.897 391.243 275.054 391.586 275.054 394.198C275.054 395.86 272.613 397.6 270.284 397.6C268.061 397.6 265.398 394.288 265.398 391.523C265.398 388.304 269.723 384.411 273.298 384.411C274.739 384.411 277.003 385.428 278.648 386.815C280.54 388.408 281.622 388.853 281.861 388.133C282.06 387.536 282.522 387.048 282.888 387.048C283.642 387.048 285.587 393.05 285.587 395.377C285.587 396.219 286.527 397.647 287.674 398.551C288.821 399.455 289.961 400.964 290.206 401.903C290.598 403.402 290.297 403.553 287.749 403.139C285.421 402.761 284.047 403.243 280.802 405.577C277.475 407.971 275.989 408.475 272.42 408.421C269.702 408.38 266.926 407.672 264.984 406.525C262.713 405.182 261.887 405.009 261.887 405.875C261.887 406.525 262.479 407.549 263.203 408.151C266.14 410.592 263.218 413.801 258.552 413.262C256.486 413.023 256.198 412.62 256.31 410.13C256.382 408.558 256.271 407.272 256.064 407.272C255.857 407.272 254.457 408.677 252.952 410.394C249.05 414.846 246.162 416.065 239.515 416.065C235.673 416.065 233.01 416.541 231.572 417.485C229.457 418.873 229.408 418.851 229.408 416.548C229.408 415.252 229.78 413.494 230.235 412.643C230.788 411.609 230.655 409.951 229.835 407.645C229.16 405.747 228.59 403.255 228.569 402.109C228.537 400.414 228.762 400.215 229.765 401.049C230.771 401.885 231.193 401.496 232.027 398.962C233.304 395.087 235.892 393.203 239.942 393.203C244.293 393.203 246.964 395.286 246.964 398.68C246.964 403.761 241.2 406.873 239.092 402.929C238.014 400.91 239.516 399.46 241.071 401.018C242.425 402.374 243.453 402.241 243.453 400.708C243.453 398.835 240.722 397.679 238.385 398.563C236.194 399.391 234.714 402.396 235.332 404.764C237.186 411.866 250.475 409.806 250.475 402.417C250.475 400.519 250.781 400.217 252.231 400.677C253.015 400.927 253.515 401.09 253.727 400.911C254.101 400.596 253.583 399.222 252.153 395.394C251.144 392.693 250.551 389.877 250.835 389.136C251.119 388.395 251.12 386.865 250.837 385.736L250.323 383.683L248.539 385.471C247.075 386.938 246.054 387.163 242.858 386.724C237.911 386.044 234.195 387.559 230.519 391.753C228.972 393.518 227.509 394.962 227.266 394.962C227.025 394.962 226.914 393.479 227.021 391.665C227.198 388.633 227.011 388.344 224.693 388.079C221.126 387.671 220.129 388.99 221.499 392.303C223.048 396.049 222.248 396.36 218.964 393.287C214.852 389.439 211.004 388.411 205.757 389.758C201.954 390.735 201.188 390.682 199.082 389.299L196.702 387.738L197.306 390.69C198.086 394.503 198.086 396.208 197.3 401.557C196.733 405.414 196.816 405.819 197.976 404.857C199.095 403.928 199.509 404.298 200.674 407.269C202.244 411.27 205.398 412.966 209.747 412.149C213.552 411.435 215.549 408.965 215.205 405.404C214.859 401.814 211.088 399.183 208.568 400.771C206.537 402.053 206.049 404.634 207.838 404.634C208.597 404.634 209.219 404.238 209.219 403.755C209.219 403.271 209.811 402.876 210.535 402.876C211.952 402.876 212.162 403.681 211.319 405.881C210.627 407.689 206.255 407.695 204.453 405.891C202.502 403.935 202.73 399.748 204.9 397.723C208.926 393.967 214.24 394.933 217.675 400.045C218.753 401.65 219.863 402.528 220.175 402.024C221.513 399.853 221.972 401.503 221.45 406.613C221.039 410.634 221.207 412.481 222.076 413.497C222.729 414.26 223.264 415.911 223.264 417.166C223.264 419.408 223.218 419.425 220.626 418.13C218.434 417.034 217.433 416.994 214.715 417.893C208.108 420.077 203.238 418.853 197.588 413.588C195.197 411.361 194.208 412.295 195.984 415.106C197.386 417.324 196.02 418.703 192.419 418.703C188.479 418.703 187.37 417.163 188.895 413.81C190.117 411.124 189.807 411.137 184.97 413.977C180.142 416.811 174.826 416.917 169.668 414.281C166.744 412.787 165.557 412.602 163.494 413.323C161.325 414.08 160.942 413.99 160.959 412.722C160.97 411.901 161.751 410.24 162.695 409.031C163.776 407.647 164.442 405.366 164.493 402.876C164.538 400.699 164.872 398.156 165.237 397.224C165.85 395.658 165.944 395.645 166.489 397.07C166.998 398.398 167.486 398.178 170.038 395.467C173.702 391.576 177.152 391.305 181.062 394.601C185.214 398.1 184.464 403.597 179.638 405.03C177.525 405.658 173.619 402.62 174.566 401.085C175.31 399.878 177.398 400.036 177.874 401.337C178.171 402.148 178.549 402.179 179.32 401.456C180.121 400.704 180.031 400.143 178.928 399.038C176.996 397.103 174.481 397.225 172.351 399.358C168.078 403.639 172.126 409.91 179.165 409.91C181.933 409.91 185.058 407.471 185.968 404.6C186.538 402.801 186.606 402.794 188.322 404.349C190.077 405.941 190.088 405.914 189.861 400.237C189.737 397.094 190.091 393.408 190.648 392.047C192.371 387.842 192.155 387.449 188.82 388.719C187.314 389.293 185.788 389.059 183.277 387.87C181.371 386.967 178.911 386.216 177.809 386.199C175.308 386.162 169.897 388.385 167.637 390.379C165.993 391.83 165.955 391.805 166.579 389.686C168.276 383.923 168.245 383.636 165.851 383.034C163.016 382.321 160.697 384.02 161.415 386.285C162.523 389.782 160.67 389.604 158.377 385.995C155.03 380.73 153.64 379.801 147.937 379.026C144.586 378.57 142.479 377.767 141.519 376.58C139.697 374.326 138.995 375.063 138.995 379.23C138.995 381.055 138.594 382.796 138.105 383.1C137.296 383.6 133.728 389.95 133.728 390.888C133.728 391.104 134.453 391.09 135.339 390.858C136.681 390.507 136.969 390.996 137.066 393.798C137.228 398.484 140.51 401.307 145.373 400.943C148.053 400.742 149.358 400.079 150.739 398.219C152.423 395.951 152.462 395.577 151.238 393.383C149.674 390.579 145.449 389.614 144.587 391.863C143.85 393.788 144.817 394.565 146.357 393.286C148.042 391.884 149.197 393.682 147.741 395.44C145.418 398.243 140.75 395.597 140.75 391.477C140.75 387.961 142.604 386.107 146.664 385.561C149.898 385.126 150.631 385.38 152.997 387.75C154.833 389.59 155.673 391.289 155.673 393.167C155.673 395.672 155.828 395.82 157.512 394.917C159.186 394.019 159.294 394.115 158.72 395.985C158.373 397.115 157.346 399.601 156.438 401.511C155.53 403.42 155.022 405.724 155.31 406.63C155.597 407.537 155.585 409.263 155.283 410.466L154.735 412.653L152.064 410.402C150.015 408.674 148.419 408.151 145.202 408.151C139.894 408.151 135.836 405.54 132.85 400.203L130.656 396.281L130.383 399.096C130.065 402.396 127.98 403.42 124.66 401.904C121.48 400.453 120.944 398.369 123.265 396.487C125.919 394.333 124.924 393.756 120.731 395.015C115.906 396.463 111.428 395.424 107.561 391.962C103.496 388.322 100.594 386.775 98.9864 387.393C96.8112 388.228 97.6258 385.51 100.19 383.375C101.538 382.252 103.581 379.255 104.729 376.717C106.782 372.176 108.272 370.801 108.272 373.446C108.272 374.552 108.865 374.449 111.609 372.867C115.535 370.604 118.705 371.041 121.953 374.294C125.499 377.847 124.371 382.971 119.683 384.601C117.25 385.447 114.416 383.732 114.416 381.413C114.416 378.608 116.144 377.518 116.772 379.925C117.278 381.862 118.358 382.329 119.195 380.972C119.999 379.669 118.773 377.484 116.905 376.891C113.986 375.962 111.138 377.202 110.235 379.793C107.837 386.684 117.158 392.534 122.796 387.676C124.977 385.797 125.473 385.671 126.29 386.79C127.051 387.832 127.584 387.074 128.949 383.006C129.888 380.208 131.544 377.024 132.631 375.929C135.222 373.317 135.166 371.926 132.495 372.597C130.87 373.006 129.559 372.38 126.783 369.868C122.756 366.223 117.455 365.019 112.722 366.672C109.539 367.783 108.888 366.202 111.783 364.391C114.156 362.907 113.992 361.008 111.34 359.267C109.567 358.104 108.886 358.035 107.828 358.915C107.107 359.515 106.516 360.725 106.516 361.604C106.516 364.783 104.902 364.112 104.326 360.694C103.482 355.688 100.518 351.726 95.9843 349.544C93.5396 348.367 91.6822 346.744 91.0747 345.254L90.096 342.857L88.6503 344.924C87.855 346.062 87.2045 347.61 87.2045 348.366C87.2045 349.121 86.1178 350.384 84.7906 351.171C83.4633 351.959 81.4189 353.627 80.2488 354.878L78.1202 357.153H80.0461C81.699 357.153 81.8912 357.495 81.4032 359.571C81.0907 360.9 80.8387 362.186 80.8431 362.428C80.9353 367.126 84.2771 370.342 89.0681 370.342C93.0823 370.342 95.6525 367.373 94.7519 363.779C93.7942 359.954 88.0823 358.478 88.0823 362.055C88.0823 363.01 88.5519 363.315 89.478 362.959C91.5198 362.174 92.754 363.226 91.5286 364.705C89.0145 367.739 83.7363 363.809 84.9951 359.839C86.6445 354.632 92.7153 353.745 97.0411 358.078C99.4463 360.487 99.6667 361.152 99.197 364.583C98.7037 368.187 98.7827 368.375 100.596 367.9C102.313 367.45 102.203 367.795 99.5517 371.148C97.9207 373.211 96.0554 375.103 95.4067 375.352C94.758 375.602 94.2146 376.851 94.1988 378.13C94.1839 379.408 93.6204 381.183 92.9462 382.072C91.7884 383.604 91.6488 383.551 90.3892 381.111C89.507 379.402 87.7224 378.021 85.0996 377.017C80.183 375.137 76.0512 370.55 75.3393 366.184C75.0417 364.36 74.6897 362.274 74.5563 361.549C74.4088 360.745 73.9217 361.184 73.3107 362.671C71.9159 366.066 69.968 366.553 67.4093 364.145C64.6003 361.501 64.6881 359.472 67.6735 358.016C70.0865 356.839 70.0857 356.838 65.6361 356.231C63.1879 355.898 60.3667 355.186 59.3669 354.65C57.2312 353.504 54.021 349.707 51.9091 345.825C51.0848 344.309 49.3073 342.645 47.959 342.128L45.509 341.189L47.5815 339.498C48.7209 338.569 50.2509 337.808 50.9821 337.808C51.7124 337.808 53.8745 336.028 55.7872 333.851C59.6065 329.505 60.8705 328.966 60.8705 331.684C60.8705 333.18 61.1479 333.325 62.5682 332.563C69.4844 328.856 77.3381 337.927 72.4487 343.976C70.672 346.173 66.9115 346.581 64.7794 344.808C63.0808 343.396 63.4416 339.127 65.2595 339.127C66.1013 339.127 66.5007 339.84 66.3673 341.105C66.1303 343.346 68.2827 343.867 69.0885 341.765C70.32 338.548 66.0364 335.463 62.3101 336.882C58.4294 338.359 57.8965 344.261 61.3331 347.704C64.2158 350.592 66.061 351.012 69.9637 349.667C72.9824 348.628 73.1606 348.671 73.1834 350.442C73.2045 352.091 73.5187 351.946 75.7984 349.239C77.2231 347.546 78.6003 345.568 78.8584 344.842C79.1165 344.117 80.5859 342.93 82.1238 342.205C85.5745 340.576 86.2135 338.918 83.538 338.535C82.2221 338.347 80.7983 336.925 79.4272 334.431C76.9764 329.973 73.3932 327.531 68.1413 326.742C64.7337 326.231 62.7525 324.619 65.5308 324.619C66.1628 324.619 67.4242 324.074 68.3345 323.406C69.9128 322.251 69.9198 322.086 68.4819 319.889C66.5894 316.995 64.8303 316.961 62.9843 319.783C62.1934 320.992 61.2831 321.981 60.9601 321.981C60.6379 321.981 60.5273 319.271 60.7143 315.959L61.054 309.936L56.9389 305.296C54.1922 302.197 52.9668 300.107 53.2538 299.008C53.49 298.102 53.4004 297.361 53.0537 297.361C52.089 297.361 48.5813 300.836 48.5813 301.792C48.5813 302.257 47.8905 302.645 47.0452 302.656C46.1999 302.666 43.7315 303.519 41.5589 304.552C38.7798 305.872 38.0644 306.537 39.145 306.795C39.883 306.971 40.3368 307.067 40.4883 307.334C40.7289 307.759 40.2072 308.617 38.8509 310.92C37.2612 313.619 37.1541 314.433 38.0398 317.122C39.2854 320.902 41.8942 322.86 45.6837 322.86C49.7304 322.86 51.8836 319.566 50.3159 315.776C49.5188 313.848 48.7104 313.172 47.4279 313.363C44.9534 313.731 44.4416 315.826 46.8257 315.826C49.0474 315.826 48.7727 317.874 46.4913 318.317C42.8098 319.032 41.0173 313.578 43.8895 310.4C46.0287 308.032 50.8109 308.307 53.4487 310.95C56.0075 313.512 56.3384 318.283 54.1861 321.572C52.8246 323.653 52.8465 323.74 54.7321 323.74C57.606 323.74 55.717 325.664 50.3255 328.228C47.9177 329.373 45.9479 330.74 45.9479 331.268C45.9479 331.795 45.0087 333.11 43.8605 334.19L41.774 336.154L41.2043 333.11C40.8216 331.068 39.6313 329.301 37.5842 327.737C32.9477 324.195 31.6082 320.903 32.134 314.343C32.6001 308.525 32.1761 307.623 30.3512 310.55C29.7481 311.517 28.6877 312.309 27.9952 312.309C26.3124 312.309 24.0029 308.889 24.0029 306.397C24.0029 304.768 24.4831 304.395 26.5845 304.395C30.4662 304.395 30.5311 303.03 26.7039 301.881C21.582 300.344 17.3852 295.189 16.6329 289.511C16.2037 286.271 15.3821 284.298 13.8819 282.905C11.3082 280.515 11.8313 279.775 16.0931 279.775C18.0295 279.775 21.3344 278.672 24.4251 276.996C29.2776 274.363 29.5225 274.316 29.052 276.116C28.643 277.682 28.9353 278.016 30.7119 278.016C38.046 278.016 41.9917 285.999 37.3393 291.426C35.6821 293.358 31.6029 293.417 29.7235 291.535C27.838 289.646 28.3226 285.602 30.4837 285.191C31.8777 284.926 32.0444 285.246 31.5467 287.233C31.0587 289.183 31.2263 289.538 32.5167 289.288C36.566 288.507 33.6227 282.413 29.196 282.413C24.5674 282.413 22.0033 287.361 24.3128 291.834C26.2755 295.637 28.183 296.863 31.8987 296.715C34.8666 296.597 35.1721 296.78 34.7437 298.421C34.2644 300.255 34.2697 300.256 37.0971 298.59C38.6552 297.672 40.6039 296.294 41.4281 295.529C42.2524 294.763 44.446 293.89 46.3017 293.588C50.7811 292.86 51.0286 292.444 48.2767 290.275C46.6028 288.957 45.9479 287.63 45.9479 285.556C45.9479 281.586 42.7053 277.126 38.2584 274.979C33.8668 272.859 33.5271 271.861 37.1971 271.861C40.3274 271.861 41.3404 270.054 39.9376 266.969C38.8307 264.536 37.0207 264.207 35.4143 266.146C34.813 266.871 33.7693 267.465 33.0943 267.465C32.1182 267.465 32.2051 266.79 33.5165 264.168C36.4633 258.275 36.5388 256.365 34.0467 250.802C32.1761 246.627 31.9295 245.317 32.7326 243.815C33.5709 242.246 33.4753 241.966 32.1015 241.966C31.2114 241.966 29.7165 242.547 28.779 243.256C27.8424 243.967 25.231 244.56 22.9777 244.575C17.8882 244.61 15.4303 245.4 17.1262 246.457C18.0172 247.012 17.6152 247.811 15.4444 249.802C13.1138 251.939 12.5915 253.078 12.5915 256.025C12.5915 262.543 19.0179 266.303 23.1251 262.189C24.0907 261.222 24.8807 259.667 24.8807 258.734C24.8807 256.754 22.4668 254.056 21.1027 254.511C19.5534 255.028 19.3602 256.913 20.8578 256.913C21.6223 256.913 22.2473 257.507 22.2473 258.232C22.2473 259.81 19.5165 259.981 18.0339 258.496C15.2741 255.732 18.3209 250.539 22.7029 250.539C23.9511 250.539 25.9192 251.429 27.0761 252.518C31.0244 256.234 30.7076 261.445 26.3142 265.041C24.7297 266.337 24.6402 266.702 25.7331 267.41C27.6265 268.639 26.5652 269.212 21.2695 269.823C18.1998 270.178 15.6717 271.093 14.0601 272.434C10.627 275.292 9.05487 275.16 9.88088 272.081C10.3645 270.28 9.87298 268.254 7.95674 264.145C5.08282 257.984 5.1627 254.506 8.30259 249.109C10.2715 245.724 9.86157 244.502 7.4801 246.66C6.5944 247.464 5.42078 248.121 4.87215 248.121C3.37287 248.121 1.91397 244.828 2.22295 242.142C2.474 239.966 2.7865 239.785 5.96589 239.981L9.43495 240.196L5.71923 236.403C1.17398 231.764 -0.082153 227.824 1.18188 222.173C1.90606 218.935 1.83672 217.523 0.857094 215.556C0.17241 214.18 -0.17432 212.84 0.0872645 212.578C0.699091 211.965 4.81158 212.94 6.18885 214.025C6.77171 214.483 7.66092 214.603 8.16653 214.29C9.54819 213.435 17.8583 212.246 17.8583 212.904C17.8583 213.219 17.4115 213.924 16.8647 214.472C16.1255 215.212 16.6689 215.801 18.9889 216.771C22.6169 218.29 24.0029 220.453 24.0029 224.596C24.0029 228.541 21.2888 231.414 17.5608 231.414C14.0838 231.414 12.5915 230.074 12.5915 226.949C12.5915 223.915 14.8317 221.847 16.359 223.471C17.1886 224.354 17.1807 224.688 16.3222 225.002C14.6105 225.631 15.002 228.068 16.7611 227.734C17.7653 227.543 18.3911 226.474 18.5685 224.646C18.7809 222.451 18.3587 221.534 16.5996 220.38C13.5606 218.386 10.3382 219.334 8.57998 222.741C5.98608 227.765 8.33507 233.18 13.6888 234.518C16.3503 235.184 16.6373 235.803 15.0327 237.41C14.1918 238.252 14.614 238.359 17.0077 237.906C18.6826 237.589 21.2835 236.833 22.7872 236.226C24.4445 235.556 25.9999 235.424 26.7373 235.891C28.0645 236.734 31.9031 236.977 31.9031 236.219C31.9031 235.96 31.2869 234.806 30.5329 233.655C29.4137 231.943 29.3382 230.908 30.1194 228.002C31.2869 223.657 29.7718 219.336 25.4943 214.818L22.6862 211.852L25.9306 212.431C28.6395 212.916 29.3329 212.715 30.1308 211.221C30.8208 209.93 30.8208 208.933 30.1308 207.642C29.3303 206.143 28.6526 205.951 25.9578 206.457L22.7406 207.062L26.3431 202.962C30.4214 198.322 31.1535 195.888 30.0097 190.788C29.3891 188.02 29.5173 186.763 30.5882 185.126C31.8399 183.211 31.8382 182.973 30.5689 182.485C29.8008 182.19 28.3085 182.335 27.2525 182.807C25.9376 183.394 24.5024 183.329 22.6933 182.599C21.2405 182.013 18.6826 181.274 17.0077 180.958C14.614 180.505 14.1918 180.611 15.0327 181.454C16.6373 183.061 16.3503 183.68 13.6888 184.346C8.33507 185.684 5.98608 191.099 8.57998 196.123C10.3259 199.506 13.5615 200.478 16.5478 198.517C19.0881 196.85 19.6306 192.134 17.3817 191.27C15.4549 190.53 14.7729 191.56 16.1159 193.181C17.0183 194.27 17.0314 194.781 16.1791 195.62C14.75 197.027 11.5619 193.315 12.3326 191.143C14.7334 184.383 24.0029 187.325 24.0029 194.846C24.0029 198.359 22.1789 200.969 18.7221 202.404C16.8155 203.194 16.2818 203.808 16.9314 204.459C17.4414 204.969 17.8583 205.645 17.8583 205.96C17.8583 206.617 9.54819 205.428 8.16653 204.574C7.66092 204.261 6.77171 204.38 6.18885 204.838C4.81158 205.923 0.699091 206.899 0.0872645 206.286C-0.17432 206.024 0.17241 204.684 0.857094 203.308C1.83672 201.341 1.90606 199.928 1.18188 196.691C-0.082153 191.04 1.17398 187.1 5.71923 182.46L9.43495 178.668L5.96589 178.883C2.7865 179.079 2.474 178.898 2.22295 176.721C1.91397 174.036 3.37287 170.743 4.87215 170.743C5.42078 170.743 6.5944 171.4 7.4801 172.204C9.87825 174.377 10.2961 173.1 8.27538 169.771C5.10301 164.548 5.03542 160.216 8.03662 154.509C10.1504 150.489 10.5269 148.988 9.93705 146.93C8.99693 143.644 10.5638 143.509 14.1874 146.563C15.7297 147.862 17.9988 148.803 19.7403 148.865C21.3607 148.922 23.8713 149.231 25.3196 149.552C27.8152 150.105 27.8609 150.192 26.1974 151.206C24.6226 152.166 24.584 152.39 25.8244 153.376C26.5845 153.981 27.9039 155.548 28.7553 156.858C32.8959 163.232 24.2329 171.769 18.7072 166.76C16.7672 165.001 16.4468 161.957 18.0339 160.367C19.5165 158.882 22.2473 159.054 22.2473 160.631C22.2473 161.357 21.6223 161.95 20.8578 161.95C19.3602 161.95 19.5534 163.835 21.1027 164.352C22.4668 164.808 24.8807 162.109 24.8807 160.129C24.8807 157.731 21.7768 154.916 19.1355 154.916C13.0928 154.916 10.218 164.228 14.9142 168.587C16.1914 169.772 17.6494 170.743 18.1541 170.743C18.6589 170.743 18.3297 171.286 17.4229 171.95C15.8324 173.115 15.8429 173.18 17.7144 173.775C18.7818 174.114 21.1457 174.284 22.9689 174.152C25.0045 174.005 27.1033 174.488 28.4104 175.405C29.5805 176.226 31.2544 176.898 32.1296 176.898C33.4744 176.898 33.5674 176.612 32.7326 175.049C31.9312 173.55 32.1656 172.259 33.973 168.225C36.3922 162.827 36.2588 159.904 33.3366 154.256C32.1287 151.921 32.0831 151.399 33.0899 151.399C33.7676 151.399 34.813 151.992 35.4143 152.718C37.0207 154.656 38.8307 154.328 39.9376 151.895C41.3404 148.81 40.3274 147.002 37.1971 147.002C33.5271 147.002 33.8668 146.005 38.2584 143.884C42.7053 141.738 45.9479 137.277 45.9479 133.307C45.9479 131.218 46.6045 129.906 48.3276 128.548C50.286 127.005 50.4809 126.529 49.4249 125.86C48.72 125.413 47.0399 125.041 45.6916 125.033C44.3442 125.026 42.4964 124.328 41.5853 123.481C40.675 122.634 38.6552 121.192 37.0971 120.274C34.2697 118.607 34.2644 118.608 34.7437 120.442C35.1721 122.084 34.8666 122.267 31.8987 122.148C28.183 122.001 26.2755 123.227 24.3128 127.029C22.0033 131.503 24.5674 136.451 29.196 136.451C33.6227 136.451 36.566 130.356 32.5167 129.576C31.2263 129.326 31.0587 129.681 31.5467 131.631C32.0444 133.618 31.8777 133.938 30.4837 133.672C28.3226 133.262 27.838 129.218 29.7235 127.329C31.6029 125.446 35.6821 125.505 37.3393 127.438C41.9917 132.864 38.046 140.847 30.7119 140.847C28.9353 140.847 28.643 141.181 29.052 142.747C29.5225 144.547 29.2776 144.501 24.4251 141.868C21.3344 140.191 18.0295 139.089 16.0931 139.089C11.8954 139.089 11.4802 138.523 13.8994 136.1C15.2082 134.789 16.1194 132.493 16.5364 129.453C17.3202 123.743 21.5784 118.52 26.7039 116.982C30.5311 115.833 30.4662 114.469 26.5845 114.469C24.4831 114.469 24.0029 114.096 24.0029 112.466C24.0029 109.989 26.3089 106.555 27.9723 106.555C28.6518 106.555 29.6305 107.346 30.1475 108.313C31.8505 111.501 32.622 110.152 32.1392 104.827C31.5494 98.3063 32.7906 95.0819 37.2524 91.5419C39.5777 89.6972 40.7987 87.9157 41.1973 85.7896L41.774 82.7094L43.8605 84.6738C45.0087 85.7536 45.9479 87.1358 45.9479 87.7443C45.9479 88.3527 46.8275 89.13 47.9019 89.4721C50.4396 90.2784 55.5791 93.6153 55.5932 94.4647C55.5985 94.8269 54.9656 95.1241 54.1861 95.1241C52.8808 95.1241 52.8808 95.2965 54.1861 97.2916C56.3384 100.581 56.0075 105.351 53.4487 107.913C49.3942 111.976 42.4367 109.988 42.4367 104.767C42.4367 102.035 44.2792 100.118 46.4913 100.547C48.7727 100.99 49.0474 103.038 46.8257 103.038C44.4416 103.038 44.9534 105.133 47.4279 105.501C48.7104 105.691 49.5188 105.015 50.3159 103.088C52.8264 97.0181 45.1272 93.2284 40.2378 98.126C37.0795 101.29 36.659 104.223 38.8325 107.914C40.2032 110.241 40.7292 111.104 40.4874 111.53C40.3357 111.798 39.8819 111.893 39.145 112.069C38.0644 112.327 38.7798 112.991 41.5589 114.312C43.7315 115.344 46.1999 116.197 47.0452 116.208C47.8905 116.218 48.5813 116.623 48.5813 117.106C48.5813 118.204 51.8134 121.503 52.8878 121.503C53.3258 121.503 53.4751 120.704 53.2205 119.729C52.8887 118.457 53.9306 116.7 56.9099 113.51L61.061 109.064L60.7178 102.974C60.5291 99.6235 60.6379 96.8827 60.9601 96.8827C61.2831 96.8827 62.1934 97.8719 62.9843 99.0809C64.8303 101.903 66.5894 101.868 68.4819 98.9745C69.9198 96.7772 69.9128 96.6128 68.3345 95.4574C67.4242 94.79 66.1628 94.2449 65.5308 94.2449C62.7525 94.2449 64.7337 92.6331 68.1413 92.1214C73.3932 91.3326 76.9764 88.8909 79.4272 84.4329C80.7983 81.9383 82.2221 80.5165 83.538 80.3283C86.2135 79.9458 85.5745 78.2875 82.1238 76.659C80.5859 75.9336 79.1112 74.7466 78.8461 74.0212C78.5801 73.2958 77.1923 71.3323 75.7615 69.6581C73.5029 67.015 73.1597 66.8567 73.1597 68.4553C73.1597 70.1927 72.9771 70.2341 69.9268 69.1833C63.9797 67.1355 59.1149 70.6737 59.1149 77.0477C59.1149 81.2727 62.3066 83.5237 66.0794 81.9585C69.0543 80.724 70.1067 78.7113 68.6786 76.987C67.1802 75.1792 66.1312 75.5292 66.3673 77.7582C66.5007 79.0235 66.1013 79.7366 65.2595 79.7366C63.4416 79.7366 63.0808 75.4676 64.7794 74.0555C66.9115 72.2828 70.672 72.6908 72.4487 74.8882C74.8767 77.8918 74.4703 81.6367 71.3787 84.7336C68.6944 87.4216 65.7818 87.7856 61.593 85.9558C60.4185 85.4432 60.2174 85.6823 60.5984 87.1411C61.3647 90.0797 59.524 89.2645 55.7872 85.0123C53.8745 82.8361 51.7124 81.0555 50.9821 81.0555C50.2509 81.0555 48.7209 80.2949 47.5815 79.3655L45.509 77.6746L47.959 76.7355C49.3073 76.2185 51.0848 74.5549 51.9091 73.039C54.021 69.157 57.2312 65.3593 59.3669 64.2136C60.3667 63.6781 63.1879 62.9659 65.6361 62.6326C70.0857 62.0259 70.0865 62.025 67.6735 60.8477C64.6881 59.3916 64.6003 57.3622 67.4093 54.719C69.968 52.3106 71.9159 52.7978 73.3107 56.1927C73.9217 57.6796 74.4088 58.1183 74.5563 57.3147C74.6897 56.5893 75.0382 54.5238 75.3305 52.7239C76.0582 48.2518 79.6625 44.259 85.1768 41.8154C88.5309 40.3303 89.9459 39.1635 90.3497 37.5518C90.656 36.3313 91.116 35.3324 91.3723 35.3324C92.3475 35.3324 94.1725 38.4864 94.1988 40.2186C94.2146 41.2131 96.0492 43.9829 98.2771 46.3737C101.809 50.1652 102.102 50.7543 100.561 50.9891C99.0452 51.2203 98.8608 51.7417 99.255 54.6838C99.6517 57.6453 99.3515 58.4718 97.0376 60.7896C92.7154 65.1184 86.6436 64.2294 84.9951 59.0249C83.7363 55.0549 89.0145 51.1245 91.5286 54.1589C92.754 55.6379 91.5198 56.6895 89.478 55.9043C88.5519 55.5482 88.0823 55.8533 88.0823 56.8082C88.0823 60.386 93.7942 58.9097 94.7519 55.0848C95.6525 51.4903 93.0823 48.5218 89.0681 48.5218C84.2771 48.5218 80.9353 51.7373 80.8431 56.4354C80.8387 56.6772 81.0907 57.9636 81.4032 59.2931C81.8912 61.3691 81.699 61.7111 80.0461 61.7111H78.1202L80.2488 63.9859C81.4189 65.2371 83.4633 66.9051 84.7906 67.6929C86.1178 68.4799 87.2045 69.7426 87.2045 70.4979C87.2045 71.2532 87.855 72.8016 88.6503 73.9394L90.096 76.0066L91.0747 73.6097C91.6822 72.1193 93.5396 70.497 95.9843 69.3196C100.518 67.1372 103.482 63.176 104.326 58.1693C104.902 54.7515 106.516 54.0806 106.516 57.2593C106.516 58.1386 107.107 59.3485 107.828 59.949C108.886 60.8283 109.567 60.7597 111.34 59.5964C113.992 57.8554 114.156 55.9571 111.783 54.4728C108.888 52.6615 109.539 51.0805 112.722 52.1919C117.455 53.845 122.756 52.6404 126.783 48.9957C129.559 46.4836 130.87 45.8575 132.495 46.2664C135.167 46.9382 135.223 45.5427 132.627 42.9427C131.539 41.8524 129.913 38.6245 129.015 35.7694C127.649 31.431 127.214 30.8085 126.36 31.9788C125.448 33.2283 125.066 33.1439 122.796 31.1875C120.762 29.435 119.637 29.0974 117.163 29.5001C108.747 30.8674 106.779 42.3667 114.961 42.3667C117.159 42.3667 119.93 40.0296 119.448 38.5823C118.862 36.8219 117.275 37.0119 116.782 38.9023C116.146 41.3397 114.416 40.2784 114.416 37.4506C114.416 35.1319 117.25 33.4165 119.683 34.2623C124.748 36.0235 125.538 41.1692 121.346 45.0917C118.132 48.0988 115.122 48.3354 111.125 45.8936C108.797 44.4718 108.272 44.3918 108.272 45.4574C108.272 48.0628 106.772 46.6638 104.719 42.1469C103.566 39.6075 101.322 36.4104 99.7334 35.0423C96.942 32.6374 96.5145 30.521 99.0144 31.482C100.594 32.0896 103.518 30.5236 107.561 26.9018C111.428 23.4392 115.906 22.4007 120.731 23.8489C125.028 25.1388 125.887 24.5286 123.1 22.1677L121 20.3898L123.463 18.1889C127.237 14.8168 129.851 15.4833 130.357 19.9475L130.656 22.5827L132.85 18.6602C135.836 13.3238 139.894 10.7123 145.202 10.7123C148.404 10.7123 150.016 10.1883 152.028 8.49211C154.639 6.29124 154.668 6.28773 155.247 8.11577C155.568 9.12959 155.605 10.8618 155.33 11.9635C155.047 13.0917 155.539 15.4631 156.459 17.3949C157.356 19.281 158.373 21.7483 158.72 22.8782C159.294 24.7484 159.186 24.8443 157.512 23.9465C155.828 23.0435 155.673 23.1921 155.673 25.6972C155.673 29.6364 151.538 33.5738 147.401 33.5738C143.613 33.5738 140.75 31.0494 140.75 27.7081C140.75 23.2967 145.317 20.4979 147.741 23.4233C149.197 25.1819 148.042 26.9792 146.357 25.5776C144.817 24.2982 143.85 25.0755 144.587 27.0003C145.449 29.2495 149.674 28.2849 151.238 25.4809C152.462 23.287 152.423 22.9125 150.739 20.6448C149.358 18.7842 148.053 18.1221 145.373 17.9207C140.51 17.5567 137.228 20.3792 137.066 25.0658C136.969 27.8673 136.681 28.357 135.339 28.0053C134.453 27.7732 133.728 27.76 133.728 27.9754C133.728 28.9136 137.296 35.2638 138.105 35.7642C138.594 36.0675 138.995 37.8085 138.995 39.6339C138.995 43.8009 139.697 44.5377 141.519 42.2832C142.484 41.0891 144.593 40.2925 148.015 39.8274C153.561 39.0729 157.301 36.3682 159.222 31.7229C160.364 28.962 162.249 29.1888 161.516 31.999C160.841 34.5824 161.762 36.2135 163.886 36.1985C167.521 36.1722 168.469 34.8822 167.278 31.5814C165.725 27.2773 165.86 27.1638 169.595 29.6399C174.48 32.8775 178.242 33.2547 183.182 31.0002C186.295 29.5801 187.701 29.3445 188.981 30.0303C192.007 31.6535 192.355 30.9817 190.648 26.8165C190.091 25.4554 189.737 21.7694 189.861 18.6268L190.09 12.9123L188.243 14.5865C187.227 15.5071 186.396 15.8342 186.396 15.3128C186.396 14.7913 185.373 13.1471 184.123 11.6593C181.553 8.5985 178.247 8.12808 174.17 10.2401C170.194 12.2994 169.367 16.5156 172.351 19.5052C174.481 21.6384 176.996 21.7606 178.928 19.8253C179.977 18.7745 180.103 18.1256 179.394 17.4151C178.684 16.7047 178.22 16.7715 177.67 17.6622C177.246 18.3498 176.287 18.64 175.474 18.3278C174.358 17.8988 174.233 17.3949 174.922 16.1041C176.841 12.5122 182.393 13.2798 183.394 17.2762C185.422 25.371 174.595 29.8184 169.538 22.967C167.793 20.6026 167.527 20.5023 166.734 21.9083C165.947 23.3055 165.797 23.2404 165.243 21.2638C164.903 20.0548 164.587 17.591 164.539 15.7893C164.49 13.9877 163.663 11.2179 162.699 9.63431C160.173 5.48494 160.374 4.45089 163.494 5.54033C165.565 6.26398 166.751 6.07406 169.762 4.53442C174.968 1.87457 180.023 1.98273 184.924 4.85888C189.811 7.72801 190.119 7.74295 188.895 5.05321C187.333 1.61694 188.495 0.0104762 192.314 0.327021C195.563 0.596083 195.609 0.653239 195.401 4.05433L195.191 7.50818L197.596 5.28885C203.266 0.0553213 208.564 -1.20294 215.187 1.11047ZM332.17 84.5727C305.513 58.0735 272.908 41.6079 235.561 35.7853C224.358 34.0381 202.773 33.3936 192.292 34.4918C146.312 39.3112 104.483 61.4227 75.0961 96.4431C35.5539 143.567 23.4666 208.184 43.3461 266.175C53.7858 296.628 71.872 323.113 96.2336 343.623C120.842 364.34 149.051 377.37 181.129 382.838C197.128 385.565 221.996 385.529 237.663 382.756C289.579 373.564 332.905 344.132 359.495 299.992C387.882 252.868 392.402 194.23 371.598 143.011C362.565 120.774 350.3 102.595 332.17 84.5727Z" fill="url(#paint0_radial_507_1454)"/>
<defs>
<radialGradient id="paint0_radial_507_1454" cx="0" cy="0" r="1" gradientUnits="userSpaceOnUse" gradientTransform="translate(209.5 209.5) rotate(90) scale(209.5)">
<stop stop-color="#FFE600"/>
<stop offset="1" stop-opacity="0"/>
</radialGradient>
</defs>
</svg>
