<svg width="173" height="180" viewBox="0 0 173 180" fill="none" xmlns="http://www.w3.org/2000/svg">
<g filter="url(#filter0_d_343_3)">
<path fill-rule="evenodd" clip-rule="evenodd" d="M136.54 58.9687C134.517 57.6213 129.991 57.334 126.508 58.3319C124.414 58.9316 105.683 67.6863 100.328 70.5678L96.671 72.5358L90.3369 68.3782L84.0026 64.2207L84.5293 63.9166C85.3561 63.4393 85.9749 62.4761 86.0664 61.5237C86.144 60.7182 86.051 60.4777 84.8758 58.4422C83.7006 56.4068 83.5389 56.206 82.8025 55.8704C81.5658 55.3066 80.8334 55.5021 77.9523 57.1642L75.4164 58.6273L69.8348 55.0138C66.7649 53.0265 64.1992 51.3069 64.1332 51.1924C64.0648 51.0739 64.3174 50.8088 64.7218 50.5754C65.5369 50.1047 66.2076 48.9124 66.1585 48.0213C66.1379 47.6483 65.6536 46.6137 64.8311 45.1852L63.5363 42.9362L62.5964 42.6175C61.3486 42.1948 60.5595 42.4327 57.6555 44.1079L55.2204 45.5123L48.8826 41.3384C42.0958 36.8691 41.7267 36.6985 40.2009 37.3263C38.4802 38.0339 37.6099 40.0907 38.43 41.5111C38.7973 42.1473 71.7708 84.3879 72.8729 85.6342L73.2456 86.0553L70.3216 87.9143C68.7135 88.9364 63.0339 92.7295 57.7001 96.343C46.7128 103.787 46.5259 103.904 46.0274 103.694C45.8294 103.61 41.5124 102.081 36.4343 100.295C26.5303 96.8129 26.16 96.7323 25.4118 97.8997C24.6101 99.151 24.5499 99.0673 32.0095 107.087C35.7525 111.11 38.8515 114.466 38.8961 114.543C38.9408 114.621 38.5343 115.071 37.9928 115.544C36.0271 117.261 35.0418 118.914 35.5054 119.717C35.9692 120.52 38.2269 120.404 40.8068 119.446C41.2234 119.291 41.6047 119.235 41.6543 119.321C41.7039 119.407 43.0644 123.775 44.6778 129.029C47.257 137.428 47.6747 138.629 48.1379 138.985C48.8342 139.519 49.9921 139.385 50.5555 138.704C50.8195 138.385 51.4592 135.553 52.3548 130.74C53.119 126.633 53.9672 122.101 54.2393 120.669L54.734 118.067L55.6087 117.622C56.0897 117.378 61.2236 114.873 67.0175 112.056C72.8113 109.24 78.8836 106.241 80.5113 105.393L83.4711 103.851L83.6636 104.379C84.4041 106.405 103.869 154.546 104.381 155.617C104.99 156.892 105.075 156.985 105.904 157.285C107.538 157.878 109.104 157.335 109.976 155.873C110.444 155.089 110.449 154.558 110.058 147.305C109.828 143.052 109.738 139.503 109.857 139.417C109.976 139.332 111.278 138.553 112.75 137.686L115.426 136.11L115.734 134.961L116.042 133.812L114.545 131.358L113.048 128.905L112.132 128.66C111.411 128.467 111.006 128.511 110.227 128.866C109.683 129.114 109.189 129.232 109.13 129.128C109.07 129.025 108.868 125.954 108.682 122.304L108.343 115.668L110.881 114.203C113.763 112.538 114.299 112.002 114.429 110.649C114.506 109.843 114.413 109.603 113.238 107.567C112.063 105.532 111.901 105.331 111.165 104.995C110.294 104.598 109.151 104.653 108.324 105.13L107.797 105.434L107.364 97.8708L106.93 90.3075L110.461 88.119C115.617 84.9236 132.589 73.0651 134.116 71.5913C136.756 69.0435 138.786 64.9562 138.61 62.5414C138.511 61.19 137.655 59.7111 136.54 58.9687Z" fill="#00C2FF"/>
</g>
<mask id="mask0_343_3" style="mask-type:alpha" maskUnits="userSpaceOnUse" x="25" y="37" width="114" height="121">
<path fill-rule="evenodd" clip-rule="evenodd" d="M136.54 58.9687C134.517 57.6213 129.991 57.334 126.508 58.3319C124.414 58.9316 105.683 67.6863 100.328 70.5678L96.671 72.5358L90.3369 68.3782L84.0026 64.2207L84.5293 63.9166C85.3561 63.4393 85.9749 62.4761 86.0664 61.5237C86.144 60.7182 86.051 60.4777 84.8758 58.4422C83.7006 56.4068 83.5389 56.206 82.8025 55.8704C81.5658 55.3066 80.8334 55.5021 77.9523 57.1642L75.4164 58.6273L69.8348 55.0138C66.7649 53.0265 64.1992 51.3069 64.1332 51.1924C64.0648 51.0739 64.3174 50.8088 64.7218 50.5754C65.5369 50.1047 66.2076 48.9124 66.1585 48.0213C66.1379 47.6483 65.6536 46.6137 64.8311 45.1852L63.5363 42.9362L62.5964 42.6175C61.3486 42.1948 60.5595 42.4327 57.6555 44.1079L55.2204 45.5123L48.8826 41.3384C42.0958 36.8691 41.7267 36.6985 40.2009 37.3263C38.4802 38.0339 37.6099 40.0907 38.43 41.5111C38.7973 42.1473 71.7708 84.3879 72.8729 85.6342L73.2456 86.0553L70.3216 87.9143C68.7135 88.9364 63.0339 92.7295 57.7001 96.343C46.7128 103.787 46.5259 103.904 46.0274 103.694C45.8294 103.61 41.5124 102.081 36.4343 100.295C26.5303 96.8129 26.16 96.7323 25.4118 97.8997C24.6101 99.151 24.5499 99.0673 32.0095 107.087C35.7525 111.11 38.8515 114.466 38.8961 114.543C38.9408 114.621 38.5343 115.071 37.9928 115.544C36.0271 117.261 35.0418 118.914 35.5054 119.717C35.9692 120.52 38.2269 120.404 40.8068 119.446C41.2234 119.291 41.6047 119.235 41.6543 119.321C41.7039 119.407 43.0644 123.775 44.6778 129.029C47.257 137.428 47.6747 138.629 48.1379 138.985C48.8342 139.519 49.9921 139.385 50.5555 138.704C50.8195 138.385 51.4592 135.553 52.3548 130.74C53.119 126.633 53.9672 122.101 54.2393 120.669L54.734 118.067L55.6087 117.622C56.0897 117.378 61.2236 114.873 67.0175 112.056C72.8113 109.24 78.8836 106.241 80.5113 105.393L83.4711 103.851L83.6636 104.379C84.4041 106.405 103.869 154.546 104.381 155.617C104.99 156.892 105.075 156.985 105.904 157.285C107.538 157.878 109.104 157.335 109.976 155.873C110.444 155.089 110.449 154.558 110.058 147.305C109.828 143.052 109.738 139.503 109.857 139.417C109.976 139.332 111.278 138.553 112.75 137.686L115.426 136.11L115.734 134.961L116.042 133.812L114.545 131.358L113.048 128.905L112.132 128.66C111.411 128.467 111.006 128.511 110.227 128.866C109.683 129.114 109.189 129.232 109.13 129.128C109.07 129.025 108.868 125.954 108.682 122.304L108.343 115.668L110.881 114.203C113.763 112.538 114.299 112.002 114.429 110.649C114.506 109.843 114.413 109.603 113.238 107.567C112.063 105.532 111.901 105.331 111.165 104.995C110.294 104.598 109.151 104.653 108.324 105.13L107.797 105.434L107.364 97.8708L106.93 90.3075L110.461 88.119C115.617 84.9236 132.589 73.0651 134.116 71.5913C136.756 69.0435 138.786 64.9562 138.61 62.5414C138.511 61.19 137.655 59.7111 136.54 58.9687Z" fill="#81CEE6"/>
</mask>
<g mask="url(#mask0_343_3)">
<path fill-rule="evenodd" clip-rule="evenodd" d="M99.1835 80.9565C96.3392 80.3749 95.0248 80.383 93.2684 80.9932C92.2757 81.3381 90.7291 82.2949 89.6471 83.2336L89.4837 83.3754L89.4648 83.0997C89.4218 82.4733 89.2438 81.9385 88.8251 81.1776C88.3698 80.3502 87.9991 79.8766 87.379 79.33C86.9179 78.9236 85.9193 78.2471 85.8458 78.2913C85.8184 78.3079 85.762 78.5334 85.7206 78.7925C85.5909 79.6039 85.0256 81.7834 84.7464 82.5484C83.2059 86.7684 80.0087 90.0833 76.1526 91.4585C74.4934 92.0502 72.6426 92.2563 71.0212 92.03C68.9686 91.7435 67.1731 90.7917 65.9732 89.3542C64.7375 87.874 64.078 85.7066 64.1888 83.4902C64.2338 82.5877 64.5854 81.2386 64.9649 80.5124C65.8349 78.8471 67.3595 77.827 69.0688 77.7665C70.3794 77.7201 71.7721 78.4808 72.4637 79.6207C72.7032 80.0156 72.9332 80.7945 72.9401 81.2341C72.9604 82.5405 72.0042 83.967 70.9628 84.1838C70.8084 84.216 70.3871 84.2365 70.0265 84.2295C69.666 84.2224 69.3537 84.2271 69.3324 84.2399C69.2534 84.2875 69.7536 85.0183 70.0942 85.3528C71.2962 86.5335 73.1235 87.0166 74.907 86.6249C76.6006 86.2529 78.1684 84.9383 78.8351 83.3307C79.7569 81.1081 79.1779 78.4829 76.3548 72.0869C74.5659 68.0339 74.0387 66.704 73.4759 64.8243C72.6383 62.0264 72.4075 59.4714 72.8052 57.3979C72.9185 56.8072 72.8889 56.8178 72.1089 57.6462C70.2811 59.5874 68.9008 61.7013 68.3813 63.3552C68.2093 63.9029 68.0159 65.1895 67.9882 65.9698C67.9448 67.194 68.1554 68.5064 68.5812 69.6659C68.7524 70.1324 68.9611 70.5201 69.7123 71.7677C70.6079 73.2552 70.6296 73.2978 70.4958 73.3049C70.4201 73.309 69.9652 73.3195 69.4849 73.3283C67.0498 73.3728 65.9958 73.6063 64.5077 74.4312C63.5568 74.9583 63.1962 75.2363 62.3562 76.0895C61.6441 76.8127 61.0035 77.651 60.7452 78.1978L60.5337 78.6457L59.8696 78.746C56.8951 79.1954 53.8217 80.3277 51.0659 81.9896C49.3875 83.0017 47.8955 84.1881 46.4005 85.6994C44.6449 87.4741 43.5617 88.9904 42.6166 90.9965C40.9721 94.4871 39.9289 97.8131 39.1922 101.914C39.0114 102.921 38.8599 103.814 38.6542 105.089C38.4115 106.592 38.3244 106.985 37.5771 109.936C36.8625 112.758 36.0733 115.565 35.61 116.933C35.5047 117.244 35.3836 117.607 35.3407 117.74C35.0476 118.651 34.4959 119.983 34.1931 120.51C34.0781 120.711 33.9884 120.882 33.994 120.891C33.9996 120.901 34.1884 120.902 34.4137 120.895C36.0928 120.842 40.3735 121.591 45.4958 122.834C47.6954 123.368 48.7686 123.67 49.994 124.101C50.3998 124.243 50.753 124.364 50.7789 124.368C50.8048 124.373 51.1626 124.491 51.5739 124.63C56.6435 126.345 60.3166 127.071 64.8912 127.263C67.7573 127.384 71.6299 126.426 74.9415 124.777C78.0401 123.234 81.3891 120.414 83.3603 117.688L83.7378 117.166L83.9988 117.193C84.7475 117.27 86.3104 116.974 87.6078 116.508C88.942 116.03 90.1572 115.195 91.0646 114.135C91.5877 113.524 91.9187 113.015 92.641 111.711C92.9326 111.185 93.1752 110.752 93.1801 110.749C93.185 110.746 93.605 111.434 94.1136 112.278C94.9416 113.653 95.0886 113.868 95.5206 114.337C96.7025 115.621 97.8984 116.379 99.8599 117.089C101.438 117.659 103.509 117.671 106.207 117.123C107.05 116.952 108.718 116.5 108.736 116.438C108.742 116.418 108.605 116.362 108.432 116.314C106.767 115.853 104.764 114.676 103.003 113.125C101.303 111.627 100.102 110.274 97.2432 106.635C94.1955 102.755 92.2991 100.747 90.7333 99.7405C88.8292 98.5167 86.6367 98.474 84.7282 99.6236C83.4521 100.392 82.6408 101.503 82.2557 103.008C82.0786 103.7 82.0597 103.901 82.111 104.539C82.1767 105.358 82.3711 106.004 82.6967 106.488L82.9054 106.798L83.0928 106.428C83.5188 105.586 83.7103 105.325 84.095 105.058C84.9488 104.466 86.3926 104.461 87.3224 105.045C88.329 105.678 88.8813 106.634 88.9836 107.921C89.0626 108.916 88.7267 109.902 88.0158 110.762C87.7697 111.06 87.6313 111.164 86.8875 111.613C86.1452 112.061 85.9825 112.138 85.5805 112.23C83.1686 112.779 80.3325 111.755 78.2643 109.589C77.9227 109.231 77.7311 108.964 77.3001 108.245C76.8274 107.456 76.7406 107.272 76.5841 106.73C76.2257 105.489 76.2041 104.054 76.5229 102.67C76.9892 100.646 78.1744 98.738 79.9484 97.1563C80.7164 96.4714 82.6999 95.2596 83.6444 94.8982C84.4719 94.5814 85.5927 94.2405 86.2995 94.0904C87.6015 93.8141 89.678 93.724 91.1289 93.8809C91.6162 93.9336 93.1729 94.2042 93.2973 94.2578C93.3292 94.2716 93.7121 94.3751 94.1483 94.488C94.5845 94.6009 95.1448 94.7624 95.3935 94.8467C95.6421 94.9311 95.8621 94.9902 95.8822 94.9781C95.9506 94.9369 95.8734 93.9858 95.7547 93.4092C95.4268 91.8166 94.5559 90.3675 93.4831 89.6295C93.2859 89.4938 93.1432 89.3714 93.1662 89.3576C93.1892 89.3437 93.4855 89.2122 93.8246 89.0652C96.2292 88.0233 97.7224 86.7534 98.6548 84.9574C99.0544 84.1879 99.3356 83.4074 99.8893 81.531L100.009 81.1253L99.1835 80.9565ZM62.1335 52.4156C62.1059 52.4165 61.7893 52.6256 61.43 52.8805C60.7225 53.3823 59.1408 54.2894 58.2975 54.677C55.8331 55.8095 53.2714 56.433 50.1328 56.6641C48.9348 56.7523 47.7679 56.7741 43.8068 56.7822C38.9606 56.7921 35.9501 57.2466 32.9861 58.4157C28.3356 60.25 24.8445 63.5777 23.1135 67.8263C21.6128 71.5094 21.6521 75.4416 23.2238 78.8783L23.5159 79.5169L22.7072 78.6342C20.772 76.5218 19.0481 75.0043 17.6131 74.1499C15.5224 72.9052 13.1265 72.1523 10.5131 71.919C9.69457 71.8459 7.76532 71.831 6.6773 71.8894C5.84329 71.9342 5.137 71.9673 4.88657 71.9735C4.778 71.9761 4.68185 72.0073 4.67289 72.0429C4.66395 72.0783 4.89353 72.2893 5.18312 72.5116C6.64032 73.6304 7.58357 74.4697 8.55309 75.51C9.61096 76.6452 10.4858 77.8573 12.4209 80.8688C14.9706 84.8366 15.9565 86.1679 17.4835 87.7045C19.5859 89.8199 21.8156 90.9672 24.6237 91.3786C25.1844 91.4608 25.75 91.4506 27.708 91.3232C28.1817 91.2924 28.6501 91.2764 28.7488 91.2877C28.9265 91.3081 28.9255 91.3105 28.6362 91.5343C27.3614 92.5205 25.7045 94.0689 25.0735 94.8636C23.4435 96.9167 22.8551 99.395 23.431 101.782C23.7838 103.245 24.4065 104.728 25.2627 106.147C26.1934 107.688 27.0207 108.61 28.0154 109.214C28.5218 109.522 29.2253 109.781 29.2479 109.667C29.2553 109.63 29.1944 109.39 29.1124 109.134C28.6174 107.588 28.5277 106.344 28.7644 104.308C28.9709 102.532 29.5779 100.917 30.6612 99.2599C32.1026 97.0553 33.958 95.2266 36.2546 93.7472C38.0991 92.5591 39.7445 91.8932 41.4061 91.6626L42.0183 91.5777L42.1845 91.1592C42.6142 90.0774 43.6422 88.3994 44.7085 87.039C44.9985 86.669 45.2458 86.3349 45.2582 86.2965C45.2705 86.258 45.18 86.2335 45.0569 86.2419C44.9339 86.2502 44.4132 86.2143 43.8999 86.162C41.0265 85.8691 35.8981 84.577 34.0929 83.6912C33.3458 83.3246 31.6469 81.8302 30.6245 80.6403C29.9771 79.8868 28.9827 78.2993 28.6714 77.522C28.1146 76.132 27.8553 74.7662 27.8978 73.447C27.983 70.8032 29.1924 68.2171 31.2343 66.3126C31.8317 65.7554 33.1738 64.8697 33.869 64.5738C36.1913 63.5855 38.4267 63.7087 40.2308 64.9246C40.9882 65.435 41.4761 65.926 41.972 66.6771C42.4816 67.4489 42.6613 67.8827 42.7573 68.5723C42.9384 69.8744 42.5462 71.1017 41.6368 72.0777C40.4559 73.345 38.7108 73.7599 37.2905 73.1108C36.5868 72.7893 36.0486 72.3387 35.4492 71.5696C35.2279 71.2855 35.0304 71.0629 35.0105 71.0749C34.9906 71.0869 34.9166 71.3572 34.8462 71.6755C34.6017 72.7804 34.8348 73.9039 35.5594 75.1131C37.1449 77.759 40.308 79.2198 43.2083 78.6456C44.1286 78.4633 44.6902 78.236 45.657 77.6542C46.5846 77.096 47.014 76.7553 47.6496 76.0731C49.9221 73.6341 50.5151 70.0319 49.1954 66.682C49.0063 66.2021 48.8334 65.8832 48.4106 65.2349C47.8188 64.3275 47.4137 63.888 46.7514 63.4347C46.551 63.2976 46.3988 63.1783 46.4132 63.1696C46.4806 63.129 47.1165 63.1105 47.8719 63.1273C51.7423 63.2129 53.9445 62.6754 56.4238 61.04C59.0506 59.3073 61.4495 56.2464 62.0505 53.8608C62.2124 53.2183 62.2587 52.4118 62.1335 52.4156ZM107.366 127.75C106.962 127.526 105.597 127.207 104.939 127.184C103.055 127.116 100.849 127.525 98.7813 128.324C97.8205 128.696 96.1746 129.669 95.3783 130.336C93.8515 131.615 92.8865 132.907 91.6691 135.303C91.243 136.142 90.8782 136.793 90.8119 136.833C90.7863 136.848 90.7453 136.665 90.7209 136.425C90.6286 135.52 90.4609 135.082 89.76 133.912C89.258 133.075 89.0443 132.767 88.7445 132.451C87.462 131.098 85.9498 130.184 84.2697 129.746C81.9512 129.143 79.7446 129.476 77.6383 130.747C76.7268 131.297 76.2342 131.713 75.6678 132.41C74.0814 134.364 73.6593 137.05 74.5376 139.602C74.7977 140.357 75.5103 141.514 76.0183 142.005C76.6239 142.59 77.2847 142.975 77.9612 143.137L78.5455 143.276L78.2756 142.679C77.2926 140.503 77.6912 138.67 79.3993 137.509C80.9915 136.427 83.0506 136.516 84.5419 137.729C85.2677 138.32 85.9787 139.573 86.2278 140.701C86.8636 143.578 85.5905 146.215 82.7341 147.937C81.8751 148.455 81.3163 148.7 80.3318 148.991C78.644 149.489 76.9622 149.546 75.2238 149.164C71.4375 148.332 68.6945 145.474 67.4366 141.05C67.096 139.853 66.888 138.649 66.9138 138.025C66.9556 137.011 67.27 135.362 67.8823 132.948C68.4824 130.581 68.9666 129.056 69.4858 127.899C69.631 127.575 69.7778 127.245 69.8121 127.166L69.8743 127.022L69.7419 127.049C67.6506 127.489 65.4934 127.663 64.1219 127.504L63.6398 127.448L63.5068 127.659C63.0206 128.433 61.9353 129.551 60.9198 130.324C59.8134 131.167 57.897 132.211 56.4385 132.765C53.2494 133.977 49.7845 134.298 47.3239 133.609C46.5456 133.391 45.1795 132.837 44.3714 132.412C43.4546 131.929 43.0342 131.602 41.8243 130.429L41.6123 130.223L41.5348 130.639C41.3739 131.502 41.5626 132.638 42.0698 133.859C42.3694 134.58 43.2973 136.152 43.8579 136.889C44.4087 137.613 45.4573 138.732 46.0546 139.234C48.2448 141.075 50.9811 141.529 54.1121 140.572C54.9175 140.326 56.6192 139.679 57.2977 139.362C57.5138 139.261 57.7012 139.196 57.7143 139.218C57.7377 139.257 57.5579 139.571 56.5317 141.285C55.9086 142.325 55.8538 142.439 55.5419 143.343C55 144.913 54.8099 146.934 55.0469 148.602C55.4303 151.302 56.3066 153.384 59.2722 158.645C61.9294 163.359 62.5193 164.842 63.1961 168.51C63.3038 169.094 63.4068 169.596 63.4251 169.627C63.5113 169.77 65.6476 165.969 66.2315 164.635C67.1238 162.595 67.6572 160.136 67.645 158.119C67.6434 157.855 67.6435 157.521 67.6452 157.378C67.651 156.889 67.4497 155.508 67.2315 154.54C66.9651 153.359 66.5941 152.115 66.0556 150.598L65.6473 149.449L65.9117 149.802C67.5528 151.992 69.6643 153.549 72.344 154.543C72.825 154.721 75.0546 155.217 75.6282 155.272C79.1994 155.62 82.4296 154.923 85.6293 153.115C88.5969 151.438 90.9166 149.189 93.0436 145.927C93.9868 144.481 94.1838 144.13 96.5729 139.642C98.8783 135.312 100.685 132.925 103.26 130.81C103.995 130.205 105.683 129.045 106.242 128.76C107.219 128.261 107.713 127.983 107.685 127.948C107.668 127.927 107.525 127.837 107.366 127.75ZM73.4723 97.2988C73.2784 97.5506 72.6288 98.5579 72.419 98.9322C71.8891 99.8771 71.2842 101.731 71.1569 102.8C70.9436 104.592 71.2366 106.464 72.0167 108.295C72.431 109.268 73.6227 111.154 74.362 112.007C75.4502 113.262 76.8962 114.563 78.2143 115.473C79.0531 116.051 79.0435 115.959 78.3478 116.755C77.3249 117.926 76.3139 118.721 74.3496 119.9C71.2134 121.783 68.2991 122.823 65.4782 123.067C64.1688 123.18 63.603 123.169 62.0478 122.998C59.1194 122.675 55.2004 121.614 49.6965 119.654C49.0146 119.411 47.0574 118.731 46.0323 118.381C44.1062 117.724 42.1454 117.202 41.1319 117.076C40.7771 117.032 40.4868 116.983 40.4867 116.967C40.4866 116.952 40.5788 116.687 40.6916 116.379C41.2546 114.84 41.7967 112.082 42.4676 107.346C42.5881 106.495 43.0523 103.608 43.0873 103.492C43.1023 103.443 43.1534 103.162 43.2008 102.869C43.4429 101.371 44.0678 98.6785 44.5224 97.1732C45.3717 94.3613 46.4361 92.2326 47.7986 90.6211C50.2502 87.7216 54.1061 85.0181 57.4223 83.8735C58.0352 83.6619 59.294 83.3895 59.3361 83.4593C59.3494 83.4816 59.3879 83.76 59.4216 84.0782C59.6036 85.7984 60.063 87.6626 60.731 89.3913C60.9923 90.0674 61.1454 90.357 61.9305 91.6605C62.7904 93.0881 62.8562 93.182 63.4079 93.7694C64.8903 95.3478 66.4593 96.324 68.3279 96.8306C69.2673 97.0853 70.1357 97.2212 70.9579 97.2422C71.6114 97.2589 72.816 97.1855 73.2423 97.1028C73.4169 97.0691 73.5706 97.0596 73.584 97.0818C73.5973 97.104 73.5471 97.2016 73.4723 97.2988ZM58.2815 92.933C56.8664 91.0924 55.3735 90.0276 52.1185 88.5372C51.6383 88.3174 51.236 88.1344 51.2245 88.1307C51.1907 88.1198 49.6423 89.5047 49.2352 89.91C48.7289 90.4138 47.9162 91.3736 47.9493 91.4284C47.964 91.4529 48.0653 91.4679 48.1744 91.4616C48.4794 91.4442 49.1748 91.6149 49.8856 91.8815C50.77 92.2133 50.8086 92.2305 51.5249 92.6138C53.8065 93.8346 55.7967 95.713 56.5047 97.3141C57.1329 98.7345 57.1485 100.09 56.55 101.223C55.9375 102.383 54.8695 103.146 53.583 103.344C53.157 103.409 52.9347 103.397 52.4765 103.284C51.7427 103.104 51.3984 102.851 51.0114 102.208C50.4892 101.341 50.3694 100.552 50.6174 99.6121C50.7556 99.0888 50.7633 98.986 50.6638 99.0004C50.4354 99.0335 49.286 99.7004 48.9772 99.979C47.753 101.083 47.1912 102.8 47.5792 104.251C47.6986 104.697 48.0872 105.373 48.4248 105.722C48.8545 106.165 49.6148 106.599 50.303 106.793L50.9301 106.971L50.4182 107.232C50.1366 107.376 49.5031 107.717 49.0103 107.988C48.2135 108.427 48.073 108.524 47.7411 108.861C46.9758 109.638 47.0481 109.481 45.819 113.036C45.6912 113.406 45.5781 113.763 45.5678 113.829C45.5522 113.93 45.6671 113.975 46.2565 114.1C47.1484 114.289 48.667 114.518 49.3083 114.559C50.2597 114.621 51.2847 114.366 52.1156 113.861C52.3497 113.719 52.8771 113.352 53.2877 113.046C53.6983 112.74 54.0666 112.469 54.1063 112.444C54.1459 112.419 54.1369 112.632 54.0862 112.917C53.9181 113.862 53.9263 114.459 54.1159 115.102C54.3563 115.917 54.9595 116.693 55.7039 117.144C56.1544 117.417 57.3063 117.709 57.8991 117.7C58.9496 117.684 60.1523 117.233 60.888 116.578C61.2132 116.288 61.2504 116.197 61.0401 116.204C60.7024 116.216 59.9377 115.963 59.5575 115.714C58.7533 115.186 58.1362 114.27 58.0872 113.531C58.0139 112.424 58.7565 111.289 59.993 110.617C61.8094 109.631 63.8758 110.148 65.313 111.948C66.1097 112.946 66.7285 114.59 67.0143 116.466C67.3094 118.405 67.1741 120.74 66.6976 121.931C66.6155 122.136 66.5766 122.309 66.6112 122.316C66.9285 122.376 70.3839 121.37 70.8746 121.075C71.0127 120.992 71.1594 117.601 71.074 116.467C70.8213 113.111 69.2 110.199 66.5391 108.322C64.3691 106.791 61.2153 106.031 58.5294 106.392L57.9428 106.471L58.4627 105.662C60.5789 102.371 60.965 98.4374 59.5032 95.0635C59.2595 94.501 58.5917 93.3365 58.2815 92.933Z" fill="url(#paint0_linear_343_3)"/>
</g>
<defs>
<filter id="filter0_d_343_3" x="10.0555" y="35.0598" width="133.565" height="140.461" filterUnits="userSpaceOnUse" color-interpolation-filters="sRGB">
<feFlood flood-opacity="0" result="BackgroundImageFix"/>
<feColorMatrix in="SourceAlpha" type="matrix" values="0 0 0 0 0 0 0 0 0 0 0 0 0 0 0 0 0 0 127 0" result="hardAlpha"/>
<feOffset dx="-5" dy="8"/>
<feGaussianBlur stdDeviation="5"/>
<feComposite in2="hardAlpha" operator="out"/>
<feColorMatrix type="matrix" values="0 0 0 0 0 0 0 0 0 0 0 0 0 0 0 0 0 0 0.25 0"/>
<feBlend mode="normal" in2="BackgroundImageFix" result="effect1_dropShadow_343_3"/>
<feBlend mode="normal" in="SourceGraphic" in2="effect1_dropShadow_343_3" result="shape"/>
</filter>
<linearGradient id="paint0_linear_343_3" x1="93.091" y1="85.8141" x2="4.59104" y2="137.814" gradientUnits="userSpaceOnUse">
<stop stop-color="white"/>
<stop offset="1" stop-color="white" stop-opacity="0"/>
</linearGradient>
</defs>
</svg>
