<svg width="79" height="79" viewBox="0 0 79 79" fill="none" xmlns="http://www.w3.org/2000/svg">
<mask id="mask0_629_354" style="mask-type:alpha" maskUnits="userSpaceOnUse" x="0" y="0" width="79" height="79">
<circle cx="39.5" cy="39.5" r="39.5" fill="black"/>
</mask>
<g mask="url(#mask0_629_354)">
<path d="M-13 0H91V79H-13V0Z" fill="#3F9C35"/>
<path d="M-13 0H91V52.6667H-13V0Z" fill="#ED2939"/>
<path d="M-13 0H91V26.3333H-13V0Z" fill="#00B9E4"/>
<path d="M36.3837 51.35C42.8455 51.35 48.0837 46.0446 48.0837 39.5C48.0837 32.9554 42.8455 27.65 36.3837 27.65C29.922 27.65 24.6837 32.9554 24.6837 39.5C24.6837 46.0446 29.922 51.35 36.3837 51.35Z" fill="white"/>
<path d="M38.9837 49.375C44.3685 49.375 48.7337 44.9538 48.7337 39.5C48.7337 34.0462 44.3685 29.625 38.9837 29.625C33.599 29.625 29.2337 34.0462 29.2337 39.5C29.2337 44.9538 33.599 49.375 38.9837 49.375Z" fill="#ED2939"/>
<path d="M49.3837 32.9167L50.635 36.4552L53.9825 34.8423L52.39 38.2492L55.8837 39.5L52.39 40.7673L53.9825 44.1577L50.635 42.5448L49.3837 46.0833L48.1325 42.5448L44.785 44.1577L46.3775 40.7673L42.8837 39.5L46.3775 38.2327L44.785 34.8423L48.1325 36.4552L49.3837 32.9167Z" fill="white"/>
</g>
</svg>
