<svg width="43" height="43" viewBox="0 0 43 43" fill="none" xmlns="http://www.w3.org/2000/svg">
<path fill-rule="evenodd" clip-rule="evenodd" d="M31.4821 0C32.0931 0 32.679 0.242697 33.111 0.674701C33.543 1.1067 33.7857 1.69263 33.7857 2.30357V6.14286H39.9286C40.7432 6.14286 41.5244 6.46645 42.1004 7.04246C42.6764 7.61846 43 8.39969 43 9.21429V39.9286C43 40.7432 42.6764 41.5244 42.1004 42.1004C41.5244 42.6764 40.7432 43 39.9286 43H3.07143C2.25684 43 1.47561 42.6764 0.8996 42.1004C0.323596 41.5244 0 40.7432 0 39.9286L0 9.21429C0 8.39969 0.323596 7.61846 0.8996 7.04246C1.47561 6.46645 2.25684 6.14286 3.07143 6.14286L9.21429 6.14286V2.30357C9.21429 1.69263 9.45698 1.1067 9.88899 0.674701C10.321 0.242697 10.9069 0 11.5179 0C12.1288 0 12.7147 0.242697 13.1467 0.674701C13.5787 1.1067 13.8214 1.69263 13.8214 2.30357V6.14286L29.1786 6.14286V2.30357C29.1786 1.69263 29.4213 1.1067 29.8533 0.674701C30.2853 0.242697 30.8712 0 31.4821 0ZM4.60714 19.9643L4.60714 38.3929H38.3929V19.9643L4.60714 19.9643ZM4.60714 15.3571L38.3929 15.3571V10.75L4.60714 10.75V15.3571ZM28.5029 24.4793C28.9342 24.9112 29.1765 25.4967 29.1765 26.1071C29.1765 26.7176 28.9342 27.3031 28.5029 27.735L21.5921 34.6457C21.1602 35.0771 20.5747 35.3194 19.9643 35.3194C19.3538 35.3194 18.7683 35.0771 18.3364 34.6457L14.4971 30.8064C14.2708 30.5955 14.0893 30.3412 13.9634 30.0587C13.8375 29.7761 13.7698 29.4711 13.7643 29.1617C13.7589 28.8524 13.8158 28.5452 13.9316 28.2584C14.0475 27.9715 14.2199 27.711 14.4387 27.4922C14.6574 27.2735 14.918 27.1011 15.2048 26.9852C15.4916 26.8693 15.7989 26.8124 16.1082 26.8179C16.4175 26.8234 16.7225 26.8911 17.0051 27.017C17.2877 27.1429 17.542 27.3244 17.7529 27.5507L19.9643 29.7621L25.2471 24.4793C25.6791 24.0479 26.2646 23.8056 26.875 23.8056C27.4855 23.8056 28.0709 24.0479 28.5029 24.4793Z" fill="#484848"/>
</svg>
