<svg width="60" height="60" viewBox="0 0 60 60" fill="none" xmlns="http://www.w3.org/2000/svg">
<path d="M33.084 0C36.4589 0.00899979 38.1718 0.0269994 39.6507 0.0689984L40.2327 0.0899978C40.9046 0.113997 41.5676 0.143996 42.3686 0.179996C45.5604 0.329992 47.7383 0.833981 49.6492 1.57496C51.6291 2.33695 53.297 3.36892 54.9649 5.03388C56.4903 6.53354 57.6706 8.34757 58.4237 10.3498C59.1647 12.2607 59.6687 14.4387 59.8187 17.6336C59.8547 18.4316 59.8847 19.0946 59.9087 19.7695L59.9267 20.3515C59.9717 21.8275 59.9897 23.5405 59.9957 26.9154L59.9987 29.1533V33.0832C60.006 35.2714 59.983 37.4595 59.9297 39.6471L59.9117 40.2291C59.8877 40.904 59.8577 41.567 59.8217 42.365C59.6717 45.5599 59.1617 47.7349 58.4237 49.6488C57.6728 51.6521 56.4922 53.4666 54.9649 54.9647C53.4649 56.4896 51.651 57.6699 49.6492 58.4236C47.7383 59.1646 45.5604 59.6686 42.3686 59.8186C41.6567 59.8521 40.9448 59.8821 40.2327 59.9086L39.6507 59.9266C38.1718 59.9686 36.4589 59.9896 33.084 59.9956L30.8462 59.9986H26.9194C24.7302 60.0061 22.5412 59.9831 20.3527 59.9296L19.7707 59.9116C19.0586 59.8846 18.3466 59.8536 17.6348 59.8186C14.443 59.6686 12.2651 59.1646 10.3512 58.4236C8.34931 57.6718 6.53605 56.4912 5.03847 54.9647C3.51169 53.4656 2.33028 51.6515 1.57665 49.6488C0.835688 47.7379 0.331714 45.5599 0.181722 42.365C0.1483 41.6532 0.118301 40.9412 0.0917262 40.2291L0.0767274 39.6471C0.0214463 37.4596 -0.00355507 35.2714 0.00173091 33.0832V26.9154C-0.00664156 24.7272 0.0153597 22.5391 0.0677278 20.3515L0.0887266 19.7695C0.112725 19.0946 0.142724 18.4316 0.178722 17.6336C0.328714 14.4387 0.832688 12.2637 1.57365 10.3498C2.32695 8.34552 3.51071 6.53092 5.04147 5.03388C6.53867 3.50834 8.35073 2.32791 10.3512 1.57496C12.2651 0.833981 14.44 0.329992 17.6348 0.179996C18.4328 0.143996 19.0988 0.113997 19.7707 0.0899978L20.3527 0.0719981C22.5402 0.0186977 24.7283 -0.00430399 26.9164 0.00299971L33.084 0ZM30.0002 14.9996C26.0222 14.9997 22.207 16.58 19.3941 19.3929C16.5812 22.2059 15.001 26.0211 15.001 29.9993C15.001 33.9775 16.5812 37.7927 19.3941 40.6057C22.207 43.4186 26.0222 44.9989 30.0002 44.9989C33.9782 44.9989 37.7934 43.4186 40.6063 40.6057C43.4192 37.7927 44.9994 33.9775 44.9994 29.9993C44.9994 26.0211 43.4192 22.2059 40.6063 19.3929C37.7934 16.58 33.9782 14.9996 30.0002 14.9996ZM30.0002 20.9995C31.182 20.9993 32.3523 21.2319 33.4443 21.684C34.5362 22.1361 35.5284 22.7989 36.3643 23.6344C37.2001 24.47 37.8632 25.462 38.3156 26.5538C38.7681 27.6457 39.001 28.8159 39.0012 29.9978C39.0014 31.1797 38.7688 32.35 38.3168 33.442C37.8647 34.534 37.2019 35.5262 36.3664 36.3621C35.5308 37.1979 34.5389 37.861 33.4471 38.3134C32.3553 38.7659 31.185 38.9989 30.0032 38.9991C27.6164 38.9991 25.3273 38.0509 23.6396 36.3631C21.9518 34.6753 21.0037 32.3862 21.0037 29.9993C21.0037 27.6124 21.9518 25.3233 23.6396 23.6355C25.3273 21.9477 27.6164 20.9995 30.0032 20.9995M45.7524 10.4998C44.7579 10.4998 43.8041 10.8948 43.1009 11.5981C42.3977 12.3013 42.0026 13.2551 42.0026 14.2497C42.0026 15.2442 42.3977 16.198 43.1009 16.9013C43.8041 17.6045 44.7579 17.9996 45.7524 17.9996C46.7469 17.9996 47.7007 17.6045 48.4039 16.9013C49.1071 16.198 49.5022 15.2442 49.5022 14.2497C49.5022 13.2551 49.1071 12.3013 48.4039 11.5981C47.7007 10.8948 46.7469 10.4998 45.7524 10.4998Z" fill="white"/>
</svg>
