<svg width="34" height="35" viewBox="0 0 34 35" fill="none" xmlns="http://www.w3.org/2000/svg">
<path d="M30.9222 34.5L25.1778 28.6C23.9556 29.5778 22.55 30.3519 20.9611 30.9222C19.3722 31.4926 17.6815 31.7778 15.8889 31.7778C11.4481 31.7778 7.69022 30.2394 4.61511 27.1627C1.54 24.0859 0.00162963 20.328 0 15.8889C0 11.4481 1.53837 7.69022 4.61511 4.61511C7.69185 1.54 11.4498 0.00162963 15.8889 0C20.3296 0 24.0884 1.53837 27.1651 4.61511C30.2419 7.69185 31.7794 11.4498 31.7778 15.8889C31.7778 17.6815 31.4926 19.3722 30.9222 20.9611C30.3519 22.55 29.5778 23.9556 28.6 25.1778L34 31.7778L30.9222 34.5ZM15.8889 26.8889C18.9444 26.8889 21.5421 25.8199 23.6818 23.6818C25.8215 21.5437 26.8905 18.9461 26.8889 15.8889C26.8889 12.8333 25.8199 10.2365 23.6818 8.09844C21.5437 5.96037 18.9461 4.89052 15.8889 4.88889C12.8333 4.88889 10.2365 5.95874 8.09844 8.09844C5.96037 10.2381 4.89052 12.835 4.88889 15.8889C4.88889 18.9444 5.95874 21.5421 8.09844 23.6818C10.2381 25.8215 12.835 26.8905 15.8889 26.8889Z" fill="#8E8E8E"/>
</svg>
