<svg width="60" height="60" viewBox="0 0 60 60" fill="none" xmlns="http://www.w3.org/2000/svg">
<path d="M30 0C24.0666 0 18.2664 1.75947 13.3329 5.05591C8.39943 8.35235 4.55426 13.0377 2.28363 18.5195C0.0129985 24.0013 -0.581101 30.0333 0.576455 35.8527C1.73401 41.6721 4.59123 47.0176 8.78681 51.2132C12.9824 55.4088 18.3279 58.266 24.1473 59.4235C29.9667 60.5811 35.9987 59.987 41.4805 57.7164C46.9623 55.4457 51.6477 51.6006 54.9441 46.6671C58.2405 41.7336 60 35.9334 60 30C60 26.0603 59.224 22.1593 57.7164 18.5195C56.2088 14.8797 53.999 11.5726 51.2132 8.78679C48.4274 6.00104 45.1203 3.79125 41.4805 2.28361C37.8407 0.775973 33.9397 0 30 0ZM39.54 45.456C39.4281 45.7363 39.2574 45.9893 39.0396 46.1982C38.8217 46.407 38.5616 46.5668 38.2769 46.6669C37.9922 46.7669 37.6893 46.8048 37.3887 46.7781C37.0881 46.7514 36.7966 46.6607 36.534 46.512L28.389 40.182L23.163 45.006C23.0417 45.0956 22.8998 45.1532 22.7504 45.1736C22.6011 45.1941 22.4489 45.1767 22.308 45.123L23.31 36.156L23.34 36.183L23.361 36.006C23.361 36.006 38.016 22.662 38.613 22.095C39.219 21.528 39.018 21.405 39.018 21.405C39.054 20.715 37.935 21.405 37.935 21.405L18.516 33.897L10.431 31.143C10.431 31.143 9.18901 30.699 9.07201 29.718C8.94901 28.746 10.47 28.218 10.47 28.218L42.621 15.444C42.621 15.444 45.264 14.268 45.264 16.218L39.54 45.456Z" fill="white"/>
</svg>
