<svg width="60" height="60" viewBox="0 0 60 60" fill="none" xmlns="http://www.w3.org/2000/svg">
<path d="M30 0C46.569 0 60 13.431 60 30C60 46.569 46.569 60 30 60C24.6984 60.0085 19.49 58.6055 14.91 55.935L0.0120422 60L4.06804 45.096C1.39532 40.5146 -0.00881513 35.304 4.16407e-05 30C4.16407e-05 13.431 13.431 0 30 0ZM19.776 15.9L19.176 15.924C18.7876 15.9476 18.408 16.0497 18.06 16.224C17.7346 16.4083 17.4375 16.6387 17.178 16.908C16.818 17.247 16.614 17.541 16.395 17.826C15.2854 19.2687 14.688 21.0399 14.697 22.86C14.703 24.33 15.087 25.761 15.687 27.099C16.914 29.805 18.933 32.67 21.597 35.325C22.239 35.964 22.869 36.606 23.547 37.203C26.8572 40.1174 30.8018 42.2191 35.067 43.341L36.771 43.602C37.326 43.632 37.881 43.59 38.439 43.563C39.3127 43.5179 40.1659 43.2813 40.938 42.87C41.3309 42.6676 41.7143 42.4474 42.087 42.21C42.087 42.21 42.216 42.126 42.462 41.94C42.867 41.64 43.116 41.427 43.452 41.076C43.701 40.818 43.917 40.515 44.082 40.17C44.316 39.681 44.55 38.748 44.646 37.971C44.718 37.377 44.697 37.053 44.688 36.852C44.676 36.531 44.409 36.198 44.118 36.057L42.372 35.274C42.372 35.274 39.762 34.137 38.166 33.411C37.999 33.3381 37.8201 33.2964 37.638 33.288C37.4328 33.2669 37.2254 33.29 37.0298 33.3557C36.8342 33.4214 36.6549 33.5282 36.504 33.669C36.489 33.663 36.288 33.834 34.119 36.462C33.9945 36.6293 33.823 36.7557 33.6264 36.8251C33.4298 36.8946 33.217 36.9039 33.015 36.852C32.8196 36.7996 32.6281 36.7334 32.442 36.654C32.07 36.498 31.941 36.438 31.686 36.33C29.9642 35.5786 28.3701 34.5634 26.961 33.321C26.583 32.991 26.232 32.631 25.872 32.283C24.6918 31.1527 23.6632 29.874 22.812 28.479L22.635 28.194C22.5079 28.0025 22.4051 27.7959 22.329 27.579C22.215 27.138 22.512 26.784 22.512 26.784C22.512 26.784 23.241 25.986 23.58 25.554C23.91 25.134 24.189 24.726 24.369 24.435C24.723 23.865 24.834 23.28 24.648 22.827C23.808 20.775 22.938 18.732 22.044 16.704C21.867 16.302 21.342 16.014 20.865 15.957C20.703 15.939 20.541 15.921 20.379 15.909C19.9761 15.889 19.5724 15.893 19.17 15.921L19.776 15.9Z" fill="white"/>
</svg>
